<svg width="834" height="1567" viewBox="0 0 834 1567" fill="none" xmlns="http://www.w3.org/2000/svg">
<path d="M887.728 210.853C770.883 179.053 956.449 137.089 813.825 107.107C671.2 77.1248 736.216 295.576 603.697 214.379C471.179 133.182 404.445 265.549 347.186 201.793C289.928 138.037 226.84 72.4417 156.05 201.432C99.4178 304.623 13.517 110.444 -22.3544 0.455206" stroke="#820201"/>
<path d="M174.701 614.87C174.742 613.036 175.407 611.521 176.695 610.325C177.984 609.129 179.602 608.532 181.55 608.532C183.446 608.532 185.039 609.114 186.327 610.279C187.626 611.443 188.275 612.881 188.275 614.592C188.275 615.777 187.94 616.932 187.27 618.055C186.61 619.168 185.358 620.688 183.513 622.616L176.541 629.99V630.052H189.11V631.165H174.778V630.238L182.709 621.827C184.42 620.024 185.569 618.637 186.157 617.669C186.755 616.689 187.054 615.679 187.054 614.638C187.054 613.226 186.523 612.041 185.461 611.083C184.4 610.114 183.085 609.629 181.519 609.629C179.932 609.629 178.607 610.124 177.546 611.113C176.484 612.103 175.933 613.355 175.891 614.87H174.701ZM181.101 682.49C179.256 682.49 177.705 681.985 176.448 680.975C175.19 679.955 174.433 678.625 174.175 676.986H175.412C175.649 678.275 176.283 679.331 177.314 680.156C178.344 680.98 179.607 681.392 181.101 681.392C183.276 681.392 184.977 680.434 186.203 678.517C187.43 676.6 188.074 673.956 188.136 670.586C188.146 670.318 188.141 669.921 188.12 669.395H188.105H188.089C187.718 670.838 186.873 672.044 185.554 673.013C184.235 673.971 182.745 674.451 181.086 674.451C178.952 674.451 177.185 673.76 175.783 672.379C174.381 670.988 173.68 669.256 173.68 667.184C173.68 664.989 174.392 663.165 175.814 661.711C177.236 660.258 179.03 659.532 181.194 659.532C182.482 659.532 183.647 659.81 184.688 660.366C185.729 660.913 186.595 661.696 187.285 662.716C188.646 664.551 189.326 667.123 189.326 670.431C189.326 674.142 188.594 677.079 187.131 679.243C185.667 681.408 183.657 682.49 181.101 682.49ZM181.21 673.353C182.962 673.353 184.467 672.755 185.724 671.56C186.992 670.354 187.626 668.937 187.626 667.308C187.626 665.443 187.007 663.866 185.77 662.577C184.544 661.289 183.024 660.645 181.21 660.645C179.416 660.645 177.917 661.273 176.711 662.531C175.505 663.778 174.902 665.324 174.902 667.169C174.902 668.9 175.5 670.364 176.695 671.56C177.891 672.755 179.396 673.353 181.21 673.353ZM170.495 734.165V713.155H170.464C170.268 713.279 169.949 713.49 169.506 713.789C169.062 714.077 168.392 714.515 167.496 715.103C166.599 715.69 165.558 716.35 164.373 717.082V715.721C164.754 715.484 165.733 714.85 167.31 713.82C168.887 712.789 169.949 712.109 170.495 711.779H171.701V734.165H170.495ZM191.491 734.49C190.213 734.49 189.049 734.217 187.997 733.671C186.956 733.124 186.091 732.346 185.4 731.336C184.039 729.522 183.359 726.94 183.359 723.591C183.359 719.88 184.096 716.943 185.57 714.778C187.054 712.614 189.064 711.532 191.6 711.532C193.403 711.532 194.939 712.037 196.207 713.047C197.485 714.057 198.253 715.386 198.51 717.035H197.273C197.036 715.747 196.387 714.691 195.325 713.866C194.264 713.042 193.017 712.629 191.584 712.629C189.327 712.629 187.575 713.691 186.328 715.814C185.091 717.927 184.503 720.864 184.565 724.626H184.627C185.019 723.142 185.864 721.931 187.162 720.993C188.461 720.045 189.94 719.571 191.6 719.571C193.712 719.571 195.475 720.272 196.887 721.674C198.299 723.075 199.005 724.822 199.005 726.915C199.005 729.079 198.289 730.883 196.856 732.326C195.434 733.769 193.645 734.49 191.491 734.49ZM191.476 733.377C193.249 733.377 194.738 732.759 195.944 731.522C197.16 730.285 197.768 728.759 197.768 726.945C197.768 725.162 197.165 723.673 195.959 722.477C194.753 721.272 193.259 720.669 191.476 720.669C190.332 720.669 189.265 720.942 188.276 721.488C187.286 722.034 186.503 722.771 185.926 723.699C185.348 724.626 185.06 725.631 185.06 726.714C185.06 728.589 185.678 730.172 186.915 731.46C188.152 732.738 189.672 733.377 191.476 733.377ZM162.518 768.87C162.559 767.036 163.224 765.521 164.512 764.325C165.8 763.129 167.418 762.532 169.366 762.532C171.263 762.532 172.855 763.114 174.144 764.279C175.442 765.443 176.092 766.881 176.092 768.592C176.092 769.777 175.757 770.932 175.087 772.055C174.427 773.168 173.175 774.688 171.33 776.616L164.357 783.99V784.052H176.926V785.165H162.595V784.238L170.526 775.827C172.237 774.024 173.386 772.637 173.974 771.669C174.571 770.689 174.87 769.679 174.87 768.638C174.87 767.226 174.339 766.041 173.278 765.083C172.216 764.114 170.902 763.629 169.336 763.629C167.748 763.629 166.424 764.124 165.362 765.113C164.301 766.103 163.749 767.355 163.708 768.87H162.518ZM190.842 774.127V773.045H193.331C195.011 773.045 196.382 772.601 197.443 771.715C198.505 770.829 199.036 769.685 199.036 768.283C199.036 766.943 198.515 765.835 197.474 764.959C196.444 764.072 195.119 763.629 193.501 763.629C191.986 763.629 190.703 764.067 189.652 764.943C188.611 765.809 188.044 766.907 187.951 768.236H186.76C186.853 766.577 187.533 765.211 188.801 764.139C190.069 763.068 191.651 762.532 193.548 762.532C195.465 762.532 197.062 763.068 198.34 764.139C199.618 765.211 200.257 766.556 200.257 768.175C200.257 769.556 199.835 770.726 198.99 771.684C198.144 772.632 196.99 773.24 195.526 773.508V773.57C197.258 773.684 198.639 774.24 199.67 775.24C200.711 776.229 201.231 777.513 201.231 779.09C201.231 780.934 200.515 782.465 199.082 783.681C197.66 784.887 195.872 785.49 193.718 785.49C191.594 785.49 189.827 784.928 188.415 783.805C187.013 782.671 186.291 781.254 186.25 779.553H187.441C187.492 780.934 188.111 782.089 189.296 783.016C190.492 783.934 191.965 784.392 193.718 784.392C195.521 784.392 197.016 783.898 198.201 782.908C199.397 781.908 199.994 780.646 199.994 779.12C199.994 777.564 199.407 776.343 198.232 775.456C197.057 774.57 195.434 774.127 193.362 774.127H190.842Z" fill="#820201"/>
<path d="M257.384 620.127V619.045H259.873C261.553 619.045 262.924 618.601 263.985 617.715C265.047 616.829 265.578 615.685 265.578 614.283C265.578 612.943 265.057 611.835 264.016 610.959C262.986 610.072 261.661 609.629 260.043 609.629C258.528 609.629 257.245 610.067 256.193 610.943C255.152 611.809 254.585 612.907 254.493 614.236H253.302C253.395 612.577 254.075 611.211 255.343 610.139C256.611 609.068 258.193 608.532 260.089 608.532C262.006 608.532 263.604 609.068 264.882 610.139C266.16 611.211 266.799 612.556 266.799 614.175C266.799 615.556 266.377 616.726 265.531 617.684C264.686 618.632 263.532 619.24 262.068 619.508V619.57C263.8 619.684 265.181 620.24 266.212 621.24C267.253 622.229 267.773 623.513 267.773 625.09C267.773 626.934 267.057 628.465 265.624 629.681C264.202 630.887 262.414 631.49 260.259 631.49C258.136 631.49 256.369 630.928 254.957 629.805C253.555 628.671 252.833 627.254 252.792 625.553H253.983C254.034 626.934 254.652 628.089 255.838 629.016C257.033 629.934 258.507 630.392 260.259 630.392C262.063 630.392 263.558 629.898 264.743 628.908C265.938 627.908 266.536 626.646 266.536 625.12C266.536 623.564 265.949 622.343 264.774 621.456C263.599 620.57 261.975 620.127 259.904 620.127H257.384ZM249.081 682.165V661.155H249.05C248.854 661.279 248.535 661.49 248.092 661.789C247.648 662.077 246.978 662.515 246.082 663.103C245.185 663.69 244.144 664.35 242.959 665.082V663.721C243.34 663.484 244.319 662.85 245.896 661.82C247.473 660.789 248.535 660.109 249.081 659.779H250.287V682.165H249.081ZM269.799 682.49C267.356 682.49 265.424 681.459 264.001 679.398C262.589 677.337 261.883 674.538 261.883 671.003C261.883 667.488 262.589 664.7 264.001 662.639C265.424 660.567 267.356 659.532 269.799 659.532C272.231 659.532 274.154 660.562 275.566 662.624C276.978 664.685 277.684 667.478 277.684 671.003C277.684 674.538 276.978 677.337 275.566 679.398C274.154 681.459 272.231 682.49 269.799 682.49ZM264.914 678.594C266.109 680.46 267.738 681.392 269.799 681.392C271.86 681.392 273.484 680.46 274.669 678.594C275.865 676.729 276.462 674.198 276.462 671.003C276.462 667.829 275.865 665.309 274.669 663.443C273.473 661.567 271.85 660.629 269.799 660.629C267.738 660.629 266.109 661.567 264.914 663.443C263.718 665.309 263.12 667.829 263.12 671.003C263.12 674.198 263.718 676.729 264.914 678.594ZM249.854 734.165V713.155H249.823C249.627 713.279 249.308 713.49 248.865 713.789C248.421 714.077 247.751 714.515 246.855 715.103C245.958 715.69 244.917 716.35 243.732 717.082V715.721C244.113 715.484 245.092 714.85 246.669 713.82C248.246 712.789 249.308 712.109 249.854 711.779H251.06V734.165H249.854ZM265.022 734.165L275.689 713.016V712.969H262.718V711.856H276.942V713.031L266.351 734.165H265.022ZM241.49 768.87C241.531 767.036 242.196 765.521 243.484 764.325C244.773 763.129 246.391 762.532 248.339 762.532C250.235 762.532 251.828 763.114 253.116 764.279C254.415 765.443 255.064 766.881 255.064 768.592C255.064 769.777 254.729 770.932 254.059 772.055C253.4 773.168 252.147 774.688 250.302 776.616L243.33 783.99V784.052H255.899V785.165H241.567V784.238L249.498 775.827C251.209 774.024 252.359 772.637 252.946 771.669C253.544 770.689 253.843 769.679 253.843 768.638C253.843 767.226 253.312 766.041 252.25 765.083C251.189 764.114 249.875 763.629 248.308 763.629C246.721 763.629 245.396 764.124 244.335 765.113C243.273 766.103 242.722 767.355 242.68 768.87H241.49ZM275.334 785.165V779.584H263.847V778.456C266.908 773.715 270.551 768.494 274.777 762.794L276.54 762.779V778.471H280.08V779.584H276.54V785.165H275.334ZM265.192 778.44V778.471H275.334V764.016H275.303C271.623 768.912 268.253 773.72 265.192 778.44Z" fill="#820201"/>
<path d="M342.432 631.165V625.584H330.945V624.456C334.006 619.715 337.65 614.494 341.876 608.794L343.638 608.779V624.471H347.178V625.584H343.638V631.165H342.432ZM332.29 624.44V624.471H342.432V610.016H342.401C338.722 614.912 335.351 619.72 332.29 624.44ZM330.728 682.165V661.155H330.697C330.501 661.279 330.182 661.49 329.739 661.789C329.295 662.077 328.626 662.515 327.729 663.103C326.832 663.69 325.791 664.35 324.606 665.082V663.721C324.987 663.484 325.966 662.85 327.543 661.82C329.12 660.789 330.182 660.109 330.728 659.779H331.934V682.165H330.728ZM349.807 682.165V661.155H349.776C349.581 661.279 349.261 661.49 348.818 661.789C348.375 662.077 347.705 662.515 346.808 663.103C345.911 663.69 344.87 664.35 343.685 665.082V663.721C344.066 663.484 345.046 662.85 346.623 661.82C348.199 660.789 349.261 660.109 349.807 659.779H351.013V682.165H349.807ZM327.914 734.165V713.155H327.883C327.688 713.279 327.368 713.49 326.925 713.789C326.482 714.077 325.812 714.515 324.915 715.103C324.018 715.69 322.977 716.35 321.792 717.082V715.721C322.173 715.484 323.153 714.85 324.73 713.82C326.307 712.789 327.368 712.109 327.914 711.779H329.12V734.165H327.914ZM348.354 734.49C346.056 734.49 344.19 733.892 342.757 732.697C341.325 731.491 340.608 729.95 340.608 728.074C340.608 726.652 341.088 725.415 342.046 724.364C343.015 723.302 344.273 722.627 345.819 722.338V722.292C344.479 721.993 343.412 721.395 342.618 720.499C341.825 719.592 341.428 718.525 341.428 717.298C341.428 715.618 342.072 714.237 343.36 713.155C344.659 712.073 346.324 711.532 348.354 711.532C350.385 711.532 352.044 712.073 353.332 713.155C354.631 714.237 355.28 715.618 355.28 717.298C355.28 718.494 354.878 719.545 354.074 720.452C353.281 721.359 352.229 721.972 350.92 722.292V722.338C352.456 722.627 353.703 723.302 354.662 724.364C355.631 725.415 356.115 726.652 356.115 728.074C356.115 729.96 355.399 731.501 353.966 732.697C352.533 733.892 350.663 734.49 348.354 734.49ZM343.639 731.877C344.834 732.887 346.406 733.392 348.354 733.392C350.302 733.392 351.874 732.887 353.069 731.877C354.275 730.867 354.878 729.584 354.878 728.028C354.878 726.533 354.275 725.312 353.069 724.364C351.874 723.415 350.302 722.941 348.354 722.941C346.416 722.941 344.845 723.421 343.639 724.379C342.443 725.327 341.845 726.543 341.845 728.028C341.845 729.584 342.443 730.867 343.639 731.877ZM348.354 721.813C350.024 721.813 351.389 721.395 352.451 720.56C353.523 719.726 354.059 718.659 354.059 717.36C354.059 715.989 353.533 714.861 352.482 713.974C351.441 713.078 350.065 712.629 348.354 712.629C346.653 712.629 345.272 713.078 344.211 713.974C343.159 714.871 342.634 716 342.634 717.36C342.634 718.659 343.17 719.726 344.242 720.56C345.324 721.395 346.695 721.813 348.354 721.813ZM319.983 768.87C320.024 767.036 320.689 765.521 321.978 764.325C323.266 763.129 324.884 762.532 326.832 762.532C328.729 762.532 330.321 763.114 331.609 764.279C332.908 765.443 333.557 766.881 333.557 768.592C333.557 769.777 333.222 770.932 332.552 772.055C331.893 773.168 330.641 774.688 328.796 776.616L321.823 783.99V784.052H334.392V785.165H320.061V784.238L327.992 775.827C329.703 774.024 330.852 772.637 331.439 771.669C332.037 770.689 332.336 769.679 332.336 768.638C332.336 767.226 331.805 766.041 330.744 765.083C329.682 764.114 328.368 763.629 326.801 763.629C325.214 763.629 323.89 764.124 322.828 765.113C321.766 766.103 321.215 767.355 321.174 768.87H319.983ZM351.013 785.49C349.745 785.49 348.576 785.243 347.504 784.748C346.432 784.253 345.561 783.568 344.891 782.692C344.231 781.805 343.845 780.811 343.731 779.708H344.953C345.128 781.058 345.788 782.176 346.932 783.063C348.086 783.949 349.452 784.392 351.029 784.392C352.874 784.392 354.404 783.795 355.62 782.599C356.847 781.393 357.46 779.883 357.46 778.069C357.46 776.265 356.857 774.761 355.651 773.555C354.456 772.339 352.966 771.73 351.183 771.73C349.946 771.73 348.813 772.024 347.782 772.612C346.751 773.189 345.932 773.993 345.324 775.023H344.087L345.417 762.856H357.244V763.969H346.468L345.417 773.508H345.463C346.071 772.622 346.896 771.921 347.937 771.406C348.988 770.89 350.117 770.633 351.322 770.633C353.425 770.633 355.177 771.339 356.579 772.751C357.981 774.163 358.682 775.93 358.682 778.054C358.682 780.198 357.955 781.975 356.502 783.387C355.059 784.789 353.229 785.49 351.013 785.49Z" fill="#820201"/>
<path d="M417.833 631.49C416.566 631.49 415.396 631.243 414.324 630.748C413.252 630.253 412.381 629.568 411.711 628.692C411.051 627.805 410.665 626.811 410.552 625.708H411.773C411.948 627.058 412.608 628.176 413.752 629.063C414.906 629.949 416.272 630.392 417.849 630.392C419.694 630.392 421.224 629.795 422.441 628.599C423.667 627.393 424.28 625.883 424.28 624.069C424.28 622.265 423.677 620.761 422.471 619.555C421.276 618.339 419.786 617.73 418.003 617.73C416.767 617.73 415.633 618.024 414.602 618.612C413.571 619.189 412.752 619.993 412.144 621.023H410.907L412.237 608.856H424.064V609.969H413.288L412.237 619.508H412.283C412.891 618.622 413.716 617.921 414.757 617.406C415.808 616.89 416.937 616.633 418.143 616.633C420.245 616.633 421.997 617.339 423.399 618.751C424.801 620.163 425.502 621.93 425.502 624.054C425.502 626.198 424.775 627.975 423.322 629.387C421.879 630.789 420.049 631.49 417.833 631.49ZM407.041 682.165V661.155H407.011C406.815 661.279 406.495 661.49 406.052 661.789C405.609 662.077 404.939 662.515 404.042 663.103C403.145 663.69 402.104 664.35 400.919 665.082V663.721C401.301 663.484 402.28 662.85 403.857 661.82C405.434 660.789 406.495 660.109 407.041 659.779H408.247V682.165H407.041ZM420.091 665.87C420.132 664.036 420.797 662.521 422.086 661.325C423.374 660.129 424.992 659.532 426.94 659.532C428.837 659.532 430.429 660.114 431.717 661.279C433.016 662.443 433.665 663.881 433.665 665.592C433.665 666.777 433.33 667.932 432.66 669.055C432.001 670.168 430.748 671.688 428.904 673.616L421.931 680.99V681.052H434.5V682.165H420.168V681.238L428.1 672.827C429.811 671.024 430.96 669.637 431.547 668.669C432.145 667.689 432.444 666.679 432.444 665.638C432.444 664.226 431.913 663.041 430.852 662.083C429.79 661.114 428.476 660.629 426.909 660.629C425.322 660.629 423.997 661.124 422.936 662.113C421.874 663.103 421.323 664.355 421.282 665.87H420.091ZM406.516 734.165V713.155H406.485C406.289 713.279 405.97 713.49 405.526 713.789C405.083 714.077 404.413 714.515 403.517 715.103C402.62 715.69 401.579 716.35 400.394 717.082V715.721C400.775 715.484 401.754 714.85 403.331 713.82C404.908 712.789 405.97 712.109 406.516 711.779H407.722V734.165H406.516ZM426.724 734.49C424.879 734.49 423.328 733.985 422.07 732.975C420.813 731.955 420.055 730.625 419.797 728.986H421.034C421.271 730.275 421.905 731.331 422.936 732.156C423.967 732.98 425.229 733.392 426.724 733.392C428.898 733.392 430.599 732.434 431.826 730.517C433.052 728.6 433.696 725.956 433.758 722.586C433.768 722.318 433.763 721.921 433.743 721.395H433.727H433.712C433.341 722.838 432.495 724.044 431.176 725.013C429.857 725.971 428.368 726.451 426.708 726.451C424.575 726.451 422.807 725.76 421.405 724.379C420.004 722.988 419.303 721.256 419.303 719.184C419.303 716.989 420.014 715.165 421.436 713.711C422.859 712.258 424.652 711.532 426.816 711.532C428.105 711.532 429.269 711.81 430.31 712.366C431.351 712.913 432.217 713.696 432.908 714.716C434.268 716.551 434.948 719.123 434.948 722.431C434.948 726.142 434.217 729.079 432.753 731.243C431.29 733.408 429.28 734.49 426.724 734.49ZM426.832 725.353C428.584 725.353 430.089 724.755 431.346 723.56C432.614 722.354 433.248 720.937 433.248 719.308C433.248 717.443 432.629 715.866 431.393 714.577C430.166 713.289 428.646 712.645 426.832 712.645C425.038 712.645 423.539 713.273 422.333 714.531C421.127 715.778 420.524 717.324 420.524 719.169C420.524 720.9 421.122 722.364 422.317 723.56C423.513 724.755 425.018 725.353 426.832 725.353ZM398.337 768.87C398.379 767.036 399.043 765.521 400.332 764.325C401.62 763.129 403.238 762.532 405.186 762.532C407.083 762.532 408.675 763.114 409.963 764.279C411.262 765.443 411.911 766.881 411.911 768.592C411.911 769.777 411.576 770.932 410.907 772.055C410.247 773.168 408.995 774.688 407.15 776.616L400.177 783.99V784.052H412.746V785.165H398.415V784.238L406.346 775.827C408.057 774.024 409.206 772.637 409.793 771.669C410.391 770.689 410.69 769.679 410.69 768.638C410.69 767.226 410.159 766.041 409.098 765.083C408.036 764.114 406.722 763.629 405.155 763.629C403.568 763.629 402.244 764.124 401.182 765.113C400.12 766.103 399.569 767.355 399.528 768.87H398.337ZM430.249 785.49C428.971 785.49 427.806 785.217 426.755 784.671C425.714 784.124 424.848 783.346 424.157 782.336C422.797 780.522 422.116 777.94 422.116 774.591C422.116 770.88 422.853 767.943 424.327 765.778C425.811 763.614 427.821 762.532 430.357 762.532C432.16 762.532 433.696 763.037 434.964 764.047C436.242 765.057 437.01 766.386 437.268 768.035H436.031C435.794 766.747 435.144 765.691 434.083 764.866C433.021 764.042 431.774 763.629 430.341 763.629C428.084 763.629 426.332 764.691 425.085 766.814C423.848 768.927 423.261 771.864 423.322 775.626H423.384C423.776 774.142 424.621 772.931 425.92 771.993C427.218 771.045 428.697 770.571 430.357 770.571C432.47 770.571 434.232 771.272 435.644 772.674C437.056 774.075 437.762 775.822 437.762 777.915C437.762 780.079 437.046 781.883 435.613 783.326C434.191 784.769 432.403 785.49 430.249 785.49ZM430.233 784.377C432.006 784.377 433.495 783.759 434.701 782.522C435.917 781.285 436.525 779.759 436.525 777.945C436.525 776.162 435.922 774.673 434.717 773.477C433.511 772.272 432.016 771.669 430.233 771.669C429.089 771.669 428.022 771.942 427.033 772.488C426.043 773.034 425.26 773.771 424.683 774.699C424.106 775.626 423.817 776.631 423.817 777.714C423.817 779.589 424.436 781.172 425.672 782.46C426.909 783.738 428.429 784.377 430.233 784.377Z" fill="#820201"/>
<path d="M496.79 631.49C495.512 631.49 494.348 631.217 493.296 630.671C492.255 630.125 491.39 629.346 490.699 628.336C489.339 626.522 488.658 623.94 488.658 620.591C488.658 616.88 489.395 613.943 490.869 611.778C492.353 609.614 494.363 608.532 496.899 608.532C498.702 608.532 500.238 609.037 501.506 610.047C502.784 611.057 503.552 612.386 503.809 614.036H502.573C502.335 612.747 501.686 611.691 500.625 610.866C499.563 610.042 498.316 609.629 496.883 609.629C494.626 609.629 492.874 610.691 491.627 612.814C490.39 614.927 489.802 617.865 489.864 621.627H489.926C490.318 620.142 491.163 618.931 492.462 617.993C493.76 617.045 495.239 616.571 496.899 616.571C499.012 616.571 500.774 617.272 502.186 618.674C503.598 620.075 504.304 621.822 504.304 623.915C504.304 626.079 503.588 627.883 502.155 629.326C500.733 630.769 498.945 631.49 496.79 631.49ZM496.775 630.377C498.548 630.377 500.037 629.759 501.243 628.522C502.459 627.285 503.067 625.76 503.067 623.946C503.067 622.163 502.464 620.673 501.258 619.478C500.053 618.272 498.558 617.669 496.775 617.669C495.631 617.669 494.564 617.942 493.575 618.488C492.585 619.034 491.802 619.771 491.225 620.699C490.648 621.627 490.359 622.631 490.359 623.714C490.359 625.59 490.977 627.172 492.214 628.46C493.451 629.738 494.971 630.377 496.775 630.377ZM485.535 682.166V661.155H485.504C485.308 661.279 484.988 661.49 484.545 661.789C484.102 662.077 483.432 662.516 482.535 663.103C481.639 663.691 480.598 664.35 479.412 665.082V663.721C479.794 663.484 480.773 662.851 482.35 661.82C483.927 660.789 484.988 660.109 485.535 659.779H486.741V682.166H485.535ZM502.944 671.127V670.045H505.433C507.113 670.045 508.484 669.601 509.546 668.715C510.607 667.829 511.138 666.685 511.138 665.283C511.138 663.943 510.618 662.835 509.577 661.959C508.546 661.073 507.222 660.629 505.603 660.629C504.088 660.629 502.805 661.067 501.754 661.944C500.713 662.809 500.146 663.907 500.053 665.237H498.863C498.955 663.577 499.636 662.211 500.903 661.14C502.171 660.068 503.753 659.532 505.65 659.532C507.567 659.532 509.164 660.068 510.442 661.14C511.72 662.211 512.359 663.557 512.359 665.175C512.359 666.556 511.937 667.726 511.092 668.684C510.247 669.632 509.092 670.241 507.629 670.508V670.57C509.36 670.684 510.741 671.24 511.772 672.24C512.813 673.229 513.333 674.513 513.333 676.09C513.333 677.935 512.617 679.465 511.185 680.681C509.762 681.887 507.974 682.49 505.82 682.49C503.697 682.49 501.929 681.928 500.517 680.805C499.115 679.671 498.394 678.254 498.352 676.553H499.543C499.594 677.935 500.213 679.089 501.398 680.017C502.594 680.934 504.068 681.393 505.82 681.393C507.624 681.393 509.118 680.898 510.303 679.908C511.499 678.909 512.097 677.646 512.097 676.121C512.097 674.564 511.509 673.343 510.334 672.456C509.159 671.57 507.536 671.127 505.464 671.127H502.944ZM476.923 717.87C476.965 716.036 477.629 714.521 478.918 713.325C480.206 712.129 481.824 711.532 483.772 711.532C485.669 711.532 487.261 712.114 488.549 713.279C489.848 714.443 490.497 715.881 490.497 717.592C490.497 718.777 490.162 719.932 489.493 721.055C488.833 722.168 487.581 723.689 485.736 725.616L478.763 732.991V733.052H491.332V734.166H477.001V733.238L484.932 724.828C486.643 723.024 487.792 721.638 488.379 720.669C488.977 719.69 489.276 718.679 489.276 717.639C489.276 716.226 488.745 715.041 487.684 714.083C486.622 713.114 485.308 712.629 483.741 712.629C482.154 712.629 480.83 713.124 479.768 714.114C478.706 715.103 478.155 716.355 478.114 717.87H476.923ZM508.556 734.49C506.114 734.49 504.181 733.46 502.759 731.398C501.347 729.337 500.641 726.538 500.641 723.003C500.641 719.489 501.347 716.701 502.759 714.639C504.181 712.568 506.114 711.532 508.556 711.532C510.989 711.532 512.911 712.562 514.323 714.624C515.735 716.685 516.441 719.478 516.441 723.003C516.441 726.538 515.735 729.337 514.323 731.398C512.911 733.46 510.989 734.49 508.556 734.49ZM503.671 730.594C504.866 732.46 506.495 733.393 508.556 733.393C510.618 733.393 512.241 732.46 513.426 730.594C514.622 728.729 515.22 726.198 515.22 723.003C515.22 719.829 514.622 717.309 513.426 715.443C512.231 713.567 510.607 712.629 508.556 712.629C506.495 712.629 504.866 713.567 503.671 715.443C502.475 717.309 501.877 719.829 501.877 723.003C501.877 726.198 502.475 728.729 503.671 730.594ZM477.99 768.87C478.031 767.036 478.696 765.521 479.984 764.325C481.273 763.129 482.891 762.532 484.839 762.532C486.735 762.532 488.328 763.114 489.616 764.279C490.915 765.443 491.564 766.881 491.564 768.592C491.564 769.777 491.229 770.932 490.559 772.055C489.9 773.168 488.647 774.689 486.802 776.616L479.83 783.991V784.052H492.399V785.166H478.067V784.238L485.999 775.828C487.709 774.024 488.859 772.638 489.446 771.669C490.044 770.69 490.343 769.679 490.343 768.639C490.343 767.226 489.812 766.041 488.75 765.083C487.689 764.114 486.375 763.629 484.808 763.629C483.221 763.629 481.896 764.124 480.835 765.114C479.773 766.103 479.222 767.355 479.181 768.87H477.99ZM503.485 785.166L514.153 764.016V763.97H501.182V762.856H515.405V764.031L504.815 785.166H503.485Z" fill="#820201"/>
<path d="M569.788 631L580.456 609.85V609.804H567.484V608.691H581.708V609.866L571.118 631H569.788ZM563.804 682V660.99H563.773C563.577 661.113 563.258 661.324 562.815 661.623C562.372 661.912 561.702 662.35 560.805 662.937C559.908 663.525 558.867 664.185 557.682 664.916V663.556C558.063 663.319 559.042 662.685 560.619 661.654C562.196 660.624 563.258 659.943 563.804 659.614H565.01V682H563.804ZM587.197 682V676.419H575.71V675.29C578.771 670.549 582.414 665.329 586.64 659.629L588.403 659.614V675.306H591.943V676.419H588.403V682H587.197ZM577.055 675.275V675.306H587.197V660.85H587.166C583.486 665.746 580.116 670.554 577.055 675.275ZM558.161 717.705C558.202 715.87 558.867 714.355 560.156 713.16C561.444 711.964 563.062 711.366 565.01 711.366C566.907 711.366 568.499 711.949 569.787 713.113C571.086 714.278 571.735 715.716 571.735 717.427C571.735 718.612 571.4 719.766 570.73 720.89C570.071 722.003 568.819 723.523 566.974 725.45L560.001 732.825V732.887H572.57V734H558.239V733.072L566.17 724.662C567.881 722.858 569.03 721.472 569.617 720.503C570.215 719.524 570.514 718.514 570.514 717.473C570.514 716.061 569.983 714.876 568.922 713.917C567.86 712.948 566.546 712.464 564.979 712.464C563.392 712.464 562.068 712.959 561.006 713.948C559.944 714.937 559.393 716.19 559.352 717.705H558.161ZM588.032 734V712.99H588.001C587.805 713.113 587.485 713.324 587.042 713.623C586.599 713.912 585.929 714.35 585.032 714.937C584.136 715.525 583.095 716.185 581.909 716.916V715.556C582.291 715.319 583.27 714.685 584.847 713.654C586.424 712.624 587.485 711.943 588.032 711.614H589.238V734H588.032ZM555.177 768.705C555.219 766.87 555.883 765.355 557.172 764.16C558.46 762.964 560.078 762.366 562.026 762.366C563.923 762.366 565.515 762.949 566.804 764.113C568.102 765.278 568.752 766.716 568.752 768.427C568.752 769.612 568.417 770.766 567.747 771.89C567.087 773.003 565.835 774.523 563.99 776.45L557.017 783.825V783.887H569.586V785H555.255V784.072L563.186 775.662C564.897 773.858 566.046 772.472 566.633 771.503C567.231 770.524 567.53 769.514 567.53 768.473C567.53 767.061 566.999 765.876 565.938 764.917C564.876 763.948 563.562 763.464 561.995 763.464C560.408 763.464 559.084 763.959 558.022 764.948C556.96 765.937 556.409 767.19 556.368 768.705H555.177ZM586.748 785.325C584.45 785.325 582.585 784.727 581.152 783.531C579.719 782.325 579.003 780.785 579.003 778.909C579.003 777.486 579.482 776.249 580.441 775.198C581.41 774.137 582.667 773.461 584.213 773.173V773.127C582.873 772.828 581.806 772.23 581.013 771.333C580.219 770.426 579.822 769.359 579.822 768.133C579.822 766.453 580.466 765.072 581.755 763.99C583.053 762.907 584.718 762.366 586.748 762.366C588.779 762.366 590.438 762.907 591.727 763.99C593.025 765.072 593.675 766.453 593.675 768.133C593.675 769.328 593.273 770.38 592.469 771.287C591.675 772.194 590.624 772.807 589.315 773.127V773.173C590.851 773.461 592.098 774.137 593.056 775.198C594.025 776.249 594.51 777.486 594.51 778.909C594.51 780.795 593.793 782.336 592.361 783.531C590.928 784.727 589.057 785.325 586.748 785.325ZM582.033 782.712C583.229 783.722 584.801 784.227 586.748 784.227C588.696 784.227 590.268 783.722 591.464 782.712C592.67 781.702 593.273 780.419 593.273 778.862C593.273 777.368 592.67 776.146 591.464 775.198C590.268 774.25 588.696 773.776 586.748 773.776C584.811 773.776 583.239 774.255 582.033 775.214C580.838 776.162 580.24 777.378 580.24 778.862C580.24 780.419 580.838 781.702 582.033 782.712ZM586.748 772.647C588.418 772.647 589.784 772.23 590.845 771.395C591.917 770.56 592.453 769.493 592.453 768.195C592.453 766.824 591.928 765.695 590.876 764.809C589.835 763.912 588.459 763.464 586.748 763.464C585.048 763.464 583.667 763.912 582.605 764.809C581.554 765.706 581.028 766.834 581.028 768.195C581.028 769.493 581.564 770.56 582.636 771.395C583.718 772.23 585.089 772.647 586.748 772.647Z" fill="#820201"/>
<path d="M652.596 631.325C650.298 631.325 648.432 630.727 646.999 629.531C645.567 628.325 644.851 626.785 644.851 624.909C644.851 623.486 645.33 622.249 646.288 621.198C647.257 620.137 648.515 619.461 650.061 619.173V619.127C648.721 618.828 647.654 618.23 646.86 617.333C646.067 616.426 645.67 615.359 645.67 614.133C645.67 612.453 646.314 611.072 647.602 609.99C648.901 608.907 650.566 608.366 652.596 608.366C654.627 608.366 656.286 608.907 657.574 609.99C658.873 611.072 659.522 612.453 659.522 614.133C659.522 615.328 659.12 616.38 658.316 617.287C657.523 618.194 656.471 618.807 655.163 619.127V619.173C656.698 619.461 657.945 620.137 658.904 621.198C659.873 622.249 660.357 623.486 660.357 624.909C660.357 626.795 659.641 628.336 658.208 629.531C656.776 630.727 654.905 631.325 652.596 631.325ZM647.881 628.712C649.076 629.722 650.648 630.227 652.596 630.227C654.544 630.227 656.116 629.722 657.311 628.712C658.517 627.702 659.12 626.419 659.12 624.862C659.12 623.368 658.517 622.146 657.311 621.198C656.116 620.25 654.544 619.776 652.596 619.776C650.658 619.776 649.087 620.255 647.881 621.214C646.685 622.162 646.087 623.378 646.087 624.862C646.087 626.419 646.685 627.702 647.881 628.712ZM652.596 618.647C654.266 618.647 655.631 618.23 656.693 617.395C657.765 616.56 658.301 615.493 658.301 614.195C658.301 612.824 657.775 611.695 656.724 610.809C655.683 609.912 654.307 609.464 652.596 609.464C650.895 609.464 649.514 609.912 648.453 610.809C647.401 611.706 646.876 612.834 646.876 614.195C646.876 615.493 647.412 616.56 648.484 617.395C649.566 618.23 650.937 618.647 652.596 618.647ZM641.727 682V660.99H641.696C641.5 661.113 641.181 661.324 640.737 661.623C640.294 661.912 639.624 662.35 638.728 662.937C637.831 663.525 636.79 664.185 635.605 664.916V663.556C635.986 663.319 636.965 662.685 638.542 661.654C640.119 660.624 641.181 659.943 641.727 659.614H642.933V682H641.727ZM662.058 682.325C660.791 682.325 659.621 682.077 658.549 681.583C657.477 681.088 656.606 680.402 655.936 679.526C655.277 678.64 654.89 677.645 654.777 676.543H655.998C656.173 677.893 656.833 679.011 657.977 679.897C659.131 680.784 660.497 681.227 662.074 681.227C663.919 681.227 665.449 680.629 666.666 679.434C667.892 678.228 668.505 676.718 668.505 674.904C668.505 673.1 667.902 671.595 666.696 670.389C665.501 669.173 664.012 668.565 662.228 668.565C660.992 668.565 659.858 668.859 658.827 669.446C657.797 670.023 656.977 670.827 656.369 671.858H655.132L656.462 659.691H668.289V660.804H657.513L656.462 670.343H656.508C657.116 669.457 657.941 668.756 658.982 668.24C660.033 667.725 661.162 667.467 662.368 667.467C664.47 667.467 666.222 668.173 667.624 669.585C669.026 670.997 669.727 672.765 669.727 674.888C669.727 677.032 669 678.81 667.547 680.222C666.104 681.624 664.274 682.325 662.058 682.325ZM633.548 717.705C633.59 715.87 634.254 714.355 635.543 713.16C636.831 711.964 638.449 711.366 640.397 711.366C642.294 711.366 643.886 711.949 645.175 713.113C646.473 714.278 647.123 715.716 647.123 717.427C647.123 718.612 646.788 719.766 646.118 720.89C645.458 722.003 644.206 723.523 642.361 725.45L635.388 732.825V732.887H647.957V734H633.626V733.072L641.557 724.662C643.268 722.858 644.417 721.472 645.005 720.503C645.602 719.524 645.901 718.514 645.901 717.473C645.901 716.061 645.37 714.876 644.309 713.917C643.247 712.948 641.933 712.464 640.366 712.464C638.779 712.464 637.455 712.959 636.393 713.948C635.332 714.937 634.78 716.19 634.739 717.705H633.548ZM657.853 717.705C657.894 715.87 658.559 714.355 659.848 713.16C661.136 711.964 662.754 711.366 664.702 711.366C666.599 711.366 668.191 711.949 669.479 713.113C670.778 714.278 671.427 715.716 671.427 717.427C671.427 718.612 671.092 719.766 670.422 720.89C669.763 722.003 668.51 723.523 666.666 725.45L659.693 732.825V732.887H672.262V734H657.931V733.072L665.862 724.662C667.573 722.858 668.722 721.472 669.309 720.503C669.907 719.524 670.206 718.514 670.206 717.473C670.206 716.061 669.675 714.876 668.614 713.917C667.552 712.948 666.238 712.464 664.671 712.464C663.084 712.464 661.76 712.959 660.698 713.948C659.636 714.937 659.085 716.19 659.044 717.705H657.853ZM633.255 768.705C633.296 766.87 633.961 765.355 635.249 764.16C636.537 762.964 638.156 762.366 640.104 762.366C642 762.366 643.592 762.949 644.881 764.113C646.179 765.278 646.829 766.716 646.829 768.427C646.829 769.612 646.494 770.766 645.824 771.89C645.164 773.003 643.912 774.523 642.067 776.45L635.094 783.825V783.887H647.664V785H633.332V784.072L641.263 775.662C642.974 773.858 644.123 772.472 644.711 771.503C645.309 770.524 645.607 769.514 645.607 768.473C645.607 767.061 645.077 765.876 644.015 764.917C642.953 763.948 641.639 763.464 640.073 763.464C638.485 763.464 637.161 763.959 636.099 764.948C635.038 765.937 634.486 767.19 634.445 768.705H633.255ZM664.254 785.325C662.409 785.325 660.858 784.82 659.6 783.81C658.343 782.789 657.585 781.46 657.328 779.821H658.564C658.801 781.109 659.435 782.166 660.466 782.99C661.497 783.815 662.759 784.227 664.254 784.227C666.429 784.227 668.129 783.268 669.356 781.351C670.582 779.434 671.226 776.791 671.288 773.42C671.298 773.152 671.293 772.755 671.273 772.23H671.257H671.242C670.871 773.673 670.026 774.879 668.706 775.848C667.387 776.806 665.898 777.285 664.238 777.285C662.105 777.285 660.337 776.595 658.935 775.214C657.534 773.822 656.833 772.091 656.833 770.019C656.833 767.824 657.544 765.999 658.966 764.546C660.389 763.093 662.182 762.366 664.347 762.366C665.635 762.366 666.8 762.644 667.841 763.201C668.882 763.747 669.747 764.531 670.438 765.551C671.798 767.386 672.479 769.957 672.479 773.266C672.479 776.976 671.747 779.914 670.283 782.078C668.82 784.242 666.81 785.325 664.254 785.325ZM664.362 776.188C666.114 776.188 667.619 775.59 668.876 774.394C670.144 773.188 670.778 771.771 670.778 770.143C670.778 768.277 670.16 766.7 668.923 765.412C667.696 764.123 666.176 763.479 664.362 763.479C662.569 763.479 661.069 764.108 659.863 765.365C658.657 766.613 658.054 768.159 658.054 770.004C658.054 771.735 658.652 773.199 659.848 774.394C661.043 775.59 662.548 776.188 664.362 776.188Z" fill="#820201"/>
<path d="M652.683 581V559.99H652.652C652.456 560.113 652.137 560.324 651.694 560.623C651.25 560.912 650.58 561.35 649.684 561.937C648.787 562.525 647.746 563.185 646.561 563.916V562.556C646.942 562.319 647.921 561.685 649.498 560.654C651.075 559.624 652.137 558.943 652.683 558.614H653.889V581H652.683Z" fill="#820201"/>
<path d="M166.135 828.838V827.755H168.624C170.304 827.755 171.675 827.312 172.737 826.426C173.798 825.539 174.329 824.395 174.329 822.994C174.329 821.654 173.809 820.546 172.768 819.67C171.737 818.783 170.413 818.34 168.794 818.34C167.279 818.34 165.996 818.778 164.945 819.654C163.904 820.52 163.337 821.618 163.244 822.947H162.054C162.146 821.288 162.827 819.922 164.094 818.85C165.362 817.778 166.944 817.242 168.841 817.242C170.758 817.242 172.355 817.778 173.633 818.85C174.911 819.922 175.55 821.267 175.55 822.885C175.55 824.267 175.128 825.436 174.283 826.395C173.438 827.343 172.283 827.951 170.82 828.219V828.281C172.551 828.394 173.932 828.951 174.963 829.951C176.004 830.94 176.524 832.223 176.524 833.8C176.524 835.645 175.808 837.176 174.375 838.392C172.953 839.598 171.165 840.201 169.011 840.201C166.888 840.201 165.12 839.639 163.708 838.516C162.306 837.382 161.585 835.965 161.543 834.264H162.734C162.785 835.645 163.404 836.8 164.589 837.727C165.785 838.645 167.259 839.103 169.011 839.103C170.814 839.103 172.309 838.608 173.494 837.619C174.69 836.619 175.288 835.357 175.288 833.831C175.288 832.275 174.7 831.054 173.525 830.167C172.35 829.281 170.727 828.838 168.655 828.838H166.135ZM193.81 840.201C191.368 840.201 189.435 839.17 188.013 837.109C186.601 835.047 185.895 832.249 185.895 828.714C185.895 825.199 186.601 822.411 188.013 820.35C189.435 818.278 191.368 817.242 193.81 817.242C196.243 817.242 198.165 818.273 199.577 820.334C200.989 822.396 201.695 825.189 201.695 828.714C201.695 832.249 200.989 835.047 199.577 837.109C198.165 839.17 196.243 840.201 193.81 840.201ZM188.925 836.305C190.12 838.17 191.749 839.103 193.81 839.103C195.872 839.103 197.495 838.17 198.68 836.305C199.876 834.439 200.474 831.909 200.474 828.714C200.474 825.539 199.876 823.019 198.68 821.154C197.485 819.278 195.861 818.34 193.81 818.34C191.749 818.34 190.12 819.278 188.925 821.154C187.729 823.019 187.131 825.539 187.131 828.714C187.131 831.909 187.729 834.439 188.925 836.305Z" fill="#820201"/>
<path d="M247.952 828.838V827.755H250.441C252.121 827.755 253.492 827.312 254.554 826.426C255.616 825.539 256.146 824.395 256.146 822.994C256.146 821.654 255.626 820.546 254.585 819.67C253.554 818.783 252.23 818.34 250.612 818.34C249.096 818.34 247.813 818.778 246.762 819.654C245.721 820.52 245.154 821.618 245.061 822.947H243.871C243.964 821.288 244.644 819.922 245.912 818.85C247.179 817.778 248.761 817.242 250.658 817.242C252.575 817.242 254.173 817.778 255.451 818.85C256.729 819.922 257.368 821.267 257.368 822.885C257.368 824.267 256.945 825.436 256.1 826.395C255.255 827.343 254.1 827.951 252.637 828.219V828.281C254.368 828.394 255.749 828.951 256.78 829.951C257.821 830.94 258.342 832.223 258.342 833.8C258.342 835.645 257.625 837.176 256.193 838.392C254.77 839.598 252.982 840.201 250.828 840.201C248.705 840.201 246.937 839.639 245.525 838.516C244.123 837.382 243.402 835.965 243.361 834.264H244.551C244.603 835.645 245.221 836.8 246.406 837.727C247.602 838.645 249.076 839.103 250.828 839.103C252.632 839.103 254.126 838.608 255.311 837.619C256.507 836.619 257.105 835.357 257.105 833.831C257.105 832.275 256.517 831.054 255.342 830.167C254.167 829.281 252.544 828.838 250.472 828.838H247.952ZM273.649 839.876V818.866H273.618C273.422 818.989 273.102 819.201 272.659 819.5C272.216 819.788 271.546 820.226 270.649 820.814C269.753 821.401 268.712 822.061 267.526 822.793V821.432C267.908 821.195 268.887 820.561 270.464 819.531C272.041 818.5 273.102 817.82 273.649 817.49H274.854V839.876H273.649Z" fill="#820201"/>
<path d="M194.295 428.45H198.195V433.15L193.495 433.9V429.25H165.345V433.15L160.695 433.9V428.45H164.595C168.495 428.45 171.595 426.1 171.595 419.05C171.595 402.65 173.195 393.25 173.195 393.25H189.595L194.295 392.45V428.45ZM168.495 428.45H189.595V394.05H173.845C173.495 396.5 172.395 404.95 172.395 419.85C172.395 424.3 170.795 427.15 168.495 428.45ZM230.453 429.2L224.753 416.65C218.053 416.95 212.103 419.6 205.303 419.75L201.103 429.2L200.403 428.9L215.203 395.6L215.003 395.1L215.653 394.6L218.853 392.25L234.303 426.35L230.453 429.2ZM205.653 418.95C212.203 418.75 217.953 416.25 224.403 415.9L215.653 396.55L205.653 418.95ZM256.068 393.05L260.768 392.25V396.95L256.068 397.75V393.85H248.268V428.25L243.568 429V393.85H235.718V396.95L231.068 397.75V393.05L235.718 392.25V393.05H243.568L248.268 392.25V393.05H256.068ZM287.191 429.2L281.491 416.65C274.791 416.95 268.841 419.6 262.041 419.75L257.841 429.2L257.141 428.9L271.941 395.6L271.741 395.1L272.391 394.6L275.591 392.25L291.041 426.35L287.191 429.2ZM262.391 418.95C268.941 418.75 274.691 416.25 281.141 415.9L272.391 396.55L262.391 418.95ZM338.292 393.05L342.992 392.25V428.25L338.292 429V393.85H317.142V428.25L312.492 429V393.05L317.142 392.25V393.05H338.292ZM366.977 392.25C373.077 392.25 379.477 395.4 379.477 401.65C379.477 407.9 373.227 411.05 367.777 411.05H355.227V428.25L350.577 429V393.05L355.227 392.25H366.977ZM367.777 410.25C373.227 410.25 374.777 405.65 374.777 401.65C374.827 399.35 373.877 397.2 372.277 395.55C370.677 393.95 368.477 393.05 366.177 393.05H355.227V410.25H367.777ZM402.053 392.25C412.203 392.25 420.803 397.75 420.803 410.25C420.803 422.75 412.203 429 402.053 429C391.903 429 383.303 422.75 383.303 410.25C383.303 397.75 391.903 392.25 402.053 392.25ZM403.603 428.25C413.003 428.25 416.103 418.85 416.103 410.25C416.103 397.75 407.503 393.05 400.503 393.05C391.103 393.05 387.953 401.65 387.953 410.25C387.953 422.75 396.553 428.25 403.603 428.25ZM452.489 407.7C457.189 408.9 460.789 412.1 460.789 418.05C460.789 426.05 454.989 429 442.039 429C438.039 429 431.839 428.25 431.839 428.25L427.189 429V393.05L431.839 392.25H445.139C451.289 392.25 457.689 394.25 457.689 400.3C457.689 405.15 455.039 407.15 452.489 407.7ZM444.389 393.05H431.839V410.2C437.339 409.75 441.139 407.35 446.839 407.15L446.739 407.1C450.739 407.1 452.989 404.1 452.989 400.1C452.989 395.05 448.389 393.05 444.389 393.05ZM442.789 428.25C452.739 428.25 456.089 423.05 456.089 418.05C456.089 411.85 452.139 408.25 447.489 407.9C441.439 407.9 437.589 410.55 431.839 410.95V427.45C431.839 427.45 438.839 428.25 442.789 428.25ZM486.533 393.05L491.183 392.25V396.95L486.533 397.75V393.85H471.633V410.25C476.533 409.95 480.783 407.15 485.733 407.15V407.9C480.783 407.9 476.533 410.7 471.633 411V427.45H486.533V425.9L491.183 425.1V428.25L486.533 429V428.25H471.633L466.983 429V393.05L471.633 392.25V393.05H486.533ZM526.668 428.45H530.568V433.15L525.868 433.9V429.25H497.718V433.15L493.068 433.9V428.45H496.968C500.868 428.45 503.968 426.1 503.968 419.05C503.968 402.65 505.568 393.25 505.568 393.25H521.968L526.668 392.45V428.45ZM500.868 428.45H521.968V394.05H506.218C505.868 396.5 504.768 404.95 504.768 419.85C504.768 424.3 503.168 427.15 500.868 428.45ZM554.99 393.05L559.64 392.25V396.95L554.99 397.75V393.85H540.09V410.25C544.99 409.95 549.24 407.15 554.19 407.15V407.9C549.24 407.9 544.99 410.7 540.09 411V427.45H554.99V425.9L559.64 425.1V428.25L554.99 429V428.25H540.09L535.44 429V393.05L540.09 392.25V393.05H554.99ZM591.025 393.05L595.725 392.25V428.25L591.025 429V407.9C583.625 407.9 577.275 411.05 569.875 411.05V428.25L565.225 429V393.05L569.875 392.25V410.25C577.275 410.25 583.625 407.15 591.025 407.15V393.05ZM629.112 393.05L633.812 392.25V428.25L629.112 429V400.95L607.962 428.1V428.25L603.312 429V393.05L607.962 392.25V426.85L629.112 399.65V393.05ZM664.786 393.05L669.486 392.25V428.25L664.786 429V411.05H659.336C647.586 411.05 643.686 423.55 643.686 429L640.586 428.25C640.586 422.35 644.436 413.65 653.086 411.05H652.286C645.236 411.05 640.586 407.9 640.586 401.65C640.586 394.6 646.836 392.25 654.636 392.25C658.036 392.15 661.436 392.4 664.786 393.05ZM652.286 410.25H664.786V393.85C661.736 393.25 658.586 392.95 655.436 393.05C649.186 393.05 645.236 395.4 645.236 401.65C645.236 405.65 646.836 410.25 652.286 410.25Z" fill="#820201"/>
<circle cx="653" cy="775" r="31.4133" stroke="#820201" stroke-width="0.826667" stroke-dasharray="7 7"/>
<path d="M314.641 514.771V497.763H304.772C304.483 502.45 304.236 505.818 304.031 507.867C303.874 509.529 303.651 510.933 303.362 512.078C303.073 513.211 302.645 514.09 302.079 514.717V514.771H314.641ZM300.109 521.151H298.771V514.771H300.308C301.573 513.94 302.374 511.608 302.712 507.776C303.061 503.884 303.326 500.137 303.507 496.534H316.032V514.771H319.25V521.151H317.912V516H300.109V521.151ZM329.678 497.546C327.654 497.546 325.997 498.257 324.708 499.679C323.419 501.101 322.72 502.974 322.611 505.3H336.583C336.571 502.999 335.926 501.131 334.649 499.697C333.384 498.263 331.727 497.546 329.678 497.546ZM336.348 510.56H337.776C337.45 512.235 336.571 513.602 335.137 514.663C333.715 515.723 331.95 516.253 329.841 516.253C327.178 516.253 325.063 515.373 323.497 513.614C321.943 511.843 321.165 509.403 321.165 506.294C321.165 503.282 321.943 500.86 323.497 499.028C325.063 497.197 327.13 496.281 329.696 496.281C332.203 496.281 334.215 497.142 335.733 498.866C337.252 500.577 338.011 502.848 338.011 505.68V506.493H322.593V506.565C322.593 509.192 323.25 511.252 324.563 512.747C325.877 514.241 327.642 514.988 329.859 514.988C331.594 514.988 333.034 514.578 334.179 513.759C335.336 512.939 336.059 511.873 336.348 510.56ZM344.59 505.86L356.031 516H354.061L343.162 506.33H343.09V516H341.698V496.534H343.09V505.481H343.162L353.645 496.534H355.525L344.59 505.86ZM364.435 515.006C366.375 515.006 368.026 514.403 369.388 513.198C370.749 511.981 371.43 510.511 371.43 508.788V505.878L364.941 506.366C363.074 506.499 361.652 506.939 360.676 507.686C359.7 508.433 359.212 509.457 359.212 510.758C359.212 512 359.7 513.018 360.676 513.813C361.664 514.608 362.917 515.006 364.435 515.006ZM364.255 516.253C362.351 516.253 360.796 515.747 359.591 514.735C358.398 513.711 357.802 512.385 357.802 510.758C357.802 509.096 358.386 507.794 359.555 506.854C360.736 505.915 362.471 505.36 364.761 505.192L371.43 504.704V502.968C371.43 501.269 370.936 499.944 369.948 498.992C368.972 498.04 367.61 497.564 365.863 497.564C364.212 497.564 362.863 497.968 361.815 498.775C360.766 499.582 360.128 500.721 359.899 502.191H358.543C358.712 500.396 359.465 498.962 360.802 497.89C362.14 496.817 363.833 496.281 365.881 496.281C368.014 496.281 369.701 496.871 370.942 498.052C372.195 499.233 372.822 500.842 372.822 502.878V516H371.466V511.807H371.43C370.948 513.132 370.044 514.205 368.719 515.024C367.393 515.843 365.905 516.253 364.255 516.253ZM385.148 516.361C382.365 516.361 380.22 515.398 378.714 513.47C377.22 511.542 376.473 508.788 376.473 505.21C376.473 502.812 376.581 500.745 376.798 499.01C377.027 497.263 377.377 495.751 377.846 494.473C378.316 493.196 378.943 492.172 379.726 491.401C380.521 490.63 381.467 490.063 382.564 489.702C383.66 489.328 384.962 489.13 386.468 489.105C387.528 489.105 388.492 489.063 389.36 488.979C390.746 488.858 391.812 488.635 392.559 488.31V489.539C391.932 489.889 390.902 490.124 389.468 490.244C388.552 490.353 387.558 490.407 386.486 490.407C384.98 490.419 383.715 490.624 382.69 491.021C381.678 491.407 380.829 492.052 380.142 492.955C379.455 493.859 378.925 494.998 378.551 496.371C378.19 497.745 377.919 499.486 377.738 501.595H377.81C378.413 500.016 379.365 498.793 380.666 497.926C381.967 497.046 383.504 496.606 385.275 496.606C387.878 496.606 389.956 497.498 391.511 499.281C393.065 501.053 393.842 503.414 393.842 506.366C393.842 509.403 393.053 511.831 391.475 513.65C389.896 515.458 387.787 516.361 385.148 516.361ZM385.148 515.078C387.366 515.078 389.131 514.295 390.444 512.729C391.758 511.15 392.414 509.029 392.414 506.366C392.414 503.776 391.758 501.715 390.444 500.185C389.143 498.655 387.378 497.89 385.148 497.89C382.919 497.89 381.148 498.655 379.835 500.185C378.533 501.715 377.883 503.776 377.883 506.366C377.883 509.029 378.533 511.15 379.835 512.729C381.148 514.295 382.919 515.078 385.148 515.078ZM406.205 496.281C408.651 496.281 410.633 497.209 412.152 499.064C413.682 500.908 414.447 503.312 414.447 506.276C414.447 509.24 413.688 511.644 412.17 513.488C410.651 515.331 408.669 516.253 406.223 516.253C404.464 516.253 402.928 515.747 401.614 514.735C400.313 513.723 399.445 512.433 399.011 510.867H398.957V522.236H397.547V496.534H398.867V501.739H398.921C399.367 500.161 400.253 498.86 401.578 497.835C402.916 496.799 404.458 496.281 406.205 496.281ZM406.042 514.988C408.115 514.988 409.796 514.187 411.085 512.584C412.374 510.969 413.019 508.867 413.019 506.276C413.019 503.685 412.374 501.589 411.085 499.986C409.796 498.372 408.115 497.564 406.042 497.564C403.958 497.564 402.253 498.372 400.927 499.986C399.614 501.601 398.957 503.697 398.957 506.276C398.957 508.843 399.614 510.939 400.927 512.566C402.253 514.181 403.958 514.988 406.042 514.988ZM424.514 504.884H419.544V514.771H424.514C426.117 514.771 427.4 514.325 428.364 513.433C429.328 512.53 429.81 511.325 429.81 509.819C429.81 508.324 429.328 507.132 428.364 506.24C427.4 505.336 426.117 504.884 424.514 504.884ZM418.152 516V496.534H419.544V503.673H424.514C426.539 503.673 428.159 504.228 429.376 505.336C430.593 506.445 431.202 507.939 431.202 509.819C431.202 511.698 430.593 513.198 429.376 514.319C428.159 515.44 426.539 516 424.514 516H418.152ZM443.655 521.965H442.408V489.919H443.655V521.965ZM455.837 496.95C455.885 494.805 456.663 493.034 458.169 491.636C459.675 490.238 461.567 489.539 463.844 489.539C466.061 489.539 467.923 490.22 469.429 491.582C470.947 492.943 471.706 494.624 471.706 496.624C471.706 498.01 471.315 499.36 470.532 500.673C469.76 501.974 468.296 503.752 466.14 506.005L457.988 514.626V514.699H472.682V516H455.928V514.916L465.2 505.083C467.2 502.974 468.543 501.354 469.23 500.221C469.929 499.076 470.279 497.896 470.279 496.679C470.279 495.028 469.658 493.642 468.417 492.521C467.176 491.389 465.639 490.822 463.808 490.822C461.952 490.822 460.404 491.401 459.163 492.558C457.922 493.714 457.277 495.178 457.229 496.95H455.837ZM485.045 516.38C482.19 516.38 479.93 515.175 478.267 512.765C476.617 510.355 475.791 507.083 475.791 502.95C475.791 498.841 476.617 495.582 478.267 493.172C479.93 490.75 482.19 489.539 485.045 489.539C487.889 489.539 490.136 490.744 491.787 493.154C493.438 495.564 494.263 498.829 494.263 502.95C494.263 507.083 493.438 510.355 491.787 512.765C490.136 515.175 487.889 516.38 485.045 516.38ZM479.334 511.825C480.732 514.006 482.635 515.096 485.045 515.096C487.455 515.096 489.353 514.006 490.739 511.825C492.136 509.644 492.835 506.686 492.835 502.95C492.835 499.239 492.136 496.293 490.739 494.112C489.341 491.919 487.443 490.822 485.045 490.822C482.635 490.822 480.732 491.919 479.334 494.112C477.936 496.293 477.237 499.239 477.237 502.95C477.237 506.686 477.936 509.644 479.334 511.825ZM497.95 496.95C497.999 494.805 498.776 493.034 500.282 491.636C501.788 490.238 503.68 489.539 505.957 489.539C508.174 489.539 510.036 490.22 511.542 491.582C513.06 492.943 513.82 494.624 513.82 496.624C513.82 498.01 513.428 499.36 512.645 500.673C511.874 501.974 510.41 503.752 508.253 506.005L500.101 514.626V514.699H514.796V516H498.041V514.916L507.313 505.083C509.313 502.974 510.657 501.354 511.343 500.221C512.042 499.076 512.392 497.896 512.392 496.679C512.392 495.028 511.771 493.642 510.53 492.521C509.289 491.389 507.753 490.822 505.921 490.822C504.065 490.822 502.517 491.401 501.276 492.558C500.035 493.714 499.39 495.178 499.342 496.95H497.95ZM529.743 516V509.475H516.314V508.156C519.893 502.613 524.152 496.51 529.092 489.846L531.153 489.828V508.174H535.292V509.475H531.153V516H529.743ZM517.886 508.138V508.174H529.743V491.274H529.707C525.405 496.998 521.465 502.619 517.886 508.138Z" fill="#820201"/>
<path d="M572.93 865C546.664 924.246 488.746 976.352 463.07 995M463.07 995L475.067 970.492M463.07 995L488.325 987.541" stroke="#820201" stroke-width="0.915493"/>
<path d="M172.386 1053.05L177.086 1052.25V1088.25L172.386 1089V1054.8L159.186 1077.7L159.636 1078.55L158.286 1079.3L144.986 1056.3V1088.25L140.336 1089V1053.05L144.986 1052.25V1053.15L158.736 1076.9L172.386 1053.25V1053.05ZM204.221 1053.05L208.871 1052.25V1056.95L204.221 1057.75V1053.85H189.321V1070.25C194.221 1069.95 198.471 1067.15 203.421 1067.15V1067.9C198.471 1067.9 194.221 1070.7 189.321 1071V1087.45H204.221V1085.9L208.871 1085.1V1088.25L204.221 1089V1088.25H189.321L184.671 1089V1053.05L189.321 1052.25V1053.05H204.221ZM242.202 1081.2L243.552 1083.7C239.852 1087.25 234.852 1089.2 229.702 1089C219.552 1089 210.952 1082.75 210.952 1070.25C210.952 1057.75 219.552 1052.25 229.702 1052.25C233.852 1052.2 237.902 1053.35 241.302 1055.7L239.952 1058.85C237.102 1055.25 232.752 1053.1 228.152 1053.05C218.752 1053.05 215.602 1061.65 215.602 1070.25C215.602 1082.75 224.202 1088.25 231.252 1088.25C235.952 1088.15 240.152 1085.4 242.202 1081.2ZM270.631 1053.05L275.331 1052.25V1056.95L270.631 1057.75V1053.85H262.831V1088.25L258.131 1089V1053.85H250.281V1056.95L245.631 1057.75V1053.05L250.281 1052.25V1053.05H258.131L262.831 1052.25V1053.05H270.631ZM294.985 1052.25C305.135 1052.25 313.735 1057.75 313.735 1070.25C313.735 1082.75 305.135 1089 294.985 1089C284.835 1089 276.235 1082.75 276.235 1070.25C276.235 1057.75 284.835 1052.25 294.985 1052.25ZM296.535 1088.25C305.935 1088.25 309.035 1078.85 309.035 1070.25C309.035 1057.75 300.435 1053.05 293.435 1053.05C284.035 1053.05 280.885 1061.65 280.885 1070.25C280.885 1082.75 289.485 1088.25 296.535 1088.25ZM362.425 1053.05L367.125 1052.25V1088.25L362.425 1089V1053.85H341.275V1088.25L336.625 1089V1053.05L341.275 1052.25V1053.05H362.425ZM391.11 1052.25C397.21 1052.25 403.61 1055.4 403.61 1061.65C403.61 1067.9 397.36 1071.05 391.91 1071.05H379.36V1088.25L374.71 1089V1053.05L379.36 1052.25H391.11ZM391.91 1070.25C397.36 1070.25 398.91 1065.65 398.91 1061.65C398.96 1059.35 398.01 1057.2 396.41 1055.55C394.81 1053.95 392.61 1053.05 390.31 1053.05H379.36V1070.25H391.91ZM426.186 1052.25C436.336 1052.25 444.936 1057.75 444.936 1070.25C444.936 1082.75 436.336 1089 426.186 1089C416.036 1089 407.436 1082.75 407.436 1070.25C407.436 1057.75 416.036 1052.25 426.186 1052.25ZM427.736 1088.25C437.136 1088.25 440.236 1078.85 440.236 1070.25C440.236 1057.75 431.636 1053.05 424.636 1053.05C415.236 1053.05 412.086 1061.65 412.086 1070.25C412.086 1082.75 420.686 1088.25 427.736 1088.25ZM476.622 1067.7C481.322 1068.9 484.922 1072.1 484.922 1078.05C484.922 1086.05 479.122 1089 466.172 1089C462.172 1089 455.972 1088.25 455.972 1088.25L451.322 1089V1053.05L455.972 1052.25H469.272C475.422 1052.25 481.822 1054.25 481.822 1060.3C481.822 1065.15 479.172 1067.15 476.622 1067.7ZM468.522 1053.05H455.972V1070.2C461.472 1069.75 465.272 1067.35 470.972 1067.15L470.872 1067.1C474.872 1067.1 477.122 1064.1 477.122 1060.1C477.122 1055.05 472.522 1053.05 468.522 1053.05ZM466.922 1088.25C476.872 1088.25 480.222 1083.05 480.222 1078.05C480.222 1071.85 476.272 1068.25 471.622 1067.9C465.572 1067.9 461.722 1070.55 455.972 1070.95V1087.45C455.972 1087.45 462.972 1088.25 466.922 1088.25ZM510.666 1053.05L515.316 1052.25V1056.95L510.666 1057.75V1053.85H495.766V1070.25C500.666 1069.95 504.916 1067.15 509.866 1067.15V1067.9C504.916 1067.9 500.666 1070.7 495.766 1071V1087.45H510.666V1085.9L515.316 1085.1V1088.25L510.666 1089V1088.25H495.766L491.116 1089V1053.05L495.766 1052.25V1053.05H510.666ZM550.801 1088.45H554.701V1093.15L550.001 1093.9V1089.25H521.851V1093.15L517.201 1093.9V1088.45H521.101C525.001 1088.45 528.101 1086.1 528.101 1079.05C528.101 1062.65 529.701 1053.25 529.701 1053.25H546.101L550.801 1052.45V1088.45ZM525.001 1088.45H546.101V1054.05H530.351C530.001 1056.5 528.901 1064.95 528.901 1079.85C528.901 1084.3 527.301 1087.15 525.001 1088.45ZM579.123 1053.05L583.773 1052.25V1056.95L579.123 1057.75V1053.85H564.223V1070.25C569.123 1069.95 573.373 1067.15 578.323 1067.15V1067.9C573.373 1067.9 569.123 1070.7 564.223 1071V1087.45H579.123V1085.9L583.773 1085.1V1088.25L579.123 1089V1088.25H564.223L559.573 1089V1053.05L564.223 1052.25V1053.05H579.123ZM615.158 1053.05L619.858 1052.25V1088.25L615.158 1089V1067.9C607.758 1067.9 601.408 1071.05 594.008 1071.05V1088.25L589.358 1089V1053.05L594.008 1052.25V1070.25C601.408 1070.25 607.758 1067.15 615.158 1067.15V1053.05ZM653.245 1053.05L657.945 1052.25V1088.25L653.245 1089V1060.95L632.095 1088.1V1088.25L627.445 1089V1053.05L632.095 1052.25V1086.85L653.245 1059.65V1053.05ZM688.92 1053.05L693.62 1052.25V1088.25L688.92 1089V1071.05H683.47C671.72 1071.05 667.82 1083.55 667.82 1089L664.72 1088.25C664.72 1082.35 668.57 1073.65 677.22 1071.05H676.42C669.37 1071.05 664.72 1067.9 664.72 1061.65C664.72 1054.6 670.97 1052.25 678.77 1052.25C682.17 1052.15 685.57 1052.4 688.92 1053.05ZM676.42 1070.25H688.92V1053.85C685.87 1053.25 682.72 1052.95 679.57 1053.05C673.32 1053.05 669.37 1055.4 669.37 1061.65C669.37 1065.65 670.97 1070.25 676.42 1070.25Z" fill="#820201"/>
<path d="M291.241 1514.8H282.577V1529.42H281.461V1513.82H291.241V1514.8ZM304.107 1527.45C302.832 1528.9 301.151 1529.62 299.065 1529.62C296.978 1529.62 295.298 1528.9 294.023 1527.45C292.757 1526 292.125 1524.06 292.125 1521.62C292.125 1519.18 292.757 1517.23 294.023 1515.79C295.298 1514.34 296.978 1513.61 299.065 1513.61C301.161 1513.61 302.841 1514.34 304.107 1515.79C305.382 1517.23 306.019 1519.18 306.019 1521.62C306.019 1524.06 305.382 1526 304.107 1527.45ZM294.834 1526.72C295.897 1527.98 297.307 1528.61 299.065 1528.61C300.823 1528.61 302.228 1527.98 303.281 1526.72C304.343 1525.46 304.875 1523.76 304.875 1521.62C304.875 1519.48 304.348 1517.78 303.295 1516.52C302.242 1515.27 300.832 1514.64 299.065 1514.64C297.297 1514.64 295.887 1515.27 294.834 1516.52C293.781 1517.78 293.255 1519.48 293.255 1521.62C293.255 1523.77 293.781 1525.47 294.834 1526.72ZM315.929 1513.61C317.89 1513.61 319.479 1514.36 320.696 1515.84C321.922 1517.32 322.536 1519.25 322.536 1521.62C322.536 1524 321.927 1525.93 320.71 1527.41C319.493 1528.88 317.904 1529.62 315.944 1529.62C314.533 1529.62 313.302 1529.22 312.249 1528.41C311.206 1527.59 310.51 1526.56 310.163 1525.3H310.119V1534.42H308.989V1513.82H310.047V1517.99H310.09C310.448 1516.72 311.158 1515.68 312.22 1514.86C313.292 1514.03 314.529 1513.61 315.929 1513.61ZM315.799 1528.61C317.46 1528.61 318.807 1527.97 319.841 1526.68C320.874 1525.39 321.391 1523.7 321.391 1521.62C321.391 1519.55 320.874 1517.87 319.841 1516.58C318.807 1515.29 317.46 1514.64 315.799 1514.64C314.128 1514.64 312.761 1515.29 311.699 1516.58C310.646 1517.88 310.119 1519.56 310.119 1521.62C310.119 1523.68 310.646 1525.36 311.699 1526.67C312.761 1527.96 314.128 1528.61 315.799 1528.61ZM336.705 1527.45C335.43 1528.9 333.75 1529.62 331.664 1529.62C329.577 1529.62 327.897 1528.9 326.622 1527.45C325.356 1526 324.724 1524.06 324.724 1521.62C324.724 1519.18 325.356 1517.23 326.622 1515.79C327.897 1514.34 329.577 1513.61 331.664 1513.61C333.759 1513.61 335.44 1514.34 336.705 1515.79C337.98 1517.23 338.618 1519.18 338.618 1521.62C338.618 1524.06 337.98 1526 336.705 1527.45ZM327.433 1526.72C328.495 1527.98 329.906 1528.61 331.664 1528.61C333.421 1528.61 334.827 1527.98 335.88 1526.72C336.942 1525.46 337.473 1523.76 337.473 1521.62C337.473 1519.48 336.947 1517.78 335.894 1516.52C334.841 1515.27 333.431 1514.64 331.664 1514.64C329.896 1514.64 328.486 1515.27 327.433 1516.52C326.38 1517.78 325.854 1519.48 325.854 1521.62C325.854 1523.77 326.38 1525.47 327.433 1526.72ZM352.672 1528.43V1514.8H344.761C344.529 1518.56 344.331 1521.26 344.167 1522.9C344.041 1524.23 343.863 1525.36 343.631 1526.28C343.399 1527.18 343.056 1527.89 342.602 1528.39V1528.43H352.672ZM341.023 1533.55H339.951V1528.43H341.182C342.197 1527.77 342.839 1525.9 343.109 1522.83C343.389 1519.71 343.602 1516.7 343.747 1513.82H353.787V1528.43H356.366V1533.55H355.294V1529.42H341.023V1533.55ZM373.013 1529.72C370.212 1529.72 367.976 1528.74 366.305 1526.78C364.644 1524.81 363.813 1522.17 363.813 1518.84C363.813 1515.59 364.644 1513 366.305 1511.09C367.967 1509.17 370.203 1508.21 373.013 1508.21C375.119 1508.21 376.954 1508.86 378.519 1510.16C380.084 1511.46 380.982 1513.07 381.214 1515H380.055C379.823 1513.38 379.036 1512.02 377.693 1510.93C376.35 1509.83 374.791 1509.28 373.013 1509.28C370.56 1509.28 368.609 1510.14 367.16 1511.86C365.711 1513.58 364.987 1515.91 364.987 1518.84C364.987 1521.84 365.711 1524.22 367.16 1526C368.618 1527.77 370.57 1528.65 373.013 1528.65C374.858 1528.65 376.433 1528.16 377.737 1527.19C379.05 1526.2 379.818 1524.91 380.04 1523.31H381.199C380.958 1525.23 380.079 1526.78 378.562 1527.96C377.056 1529.13 375.206 1529.72 373.013 1529.72ZM385.184 1529.42H384.068V1513.82H385.184V1527.65H385.256L395.195 1513.82H396.311V1529.42H395.195V1515.6H395.137L385.184 1529.42ZM401.179 1529.42H400.063V1513.82H401.367L408.206 1527.96H408.264L415.073 1513.82H416.334V1529.42H415.218V1515.96H415.145L408.655 1529.3H407.756L401.251 1515.96H401.179V1529.42ZM427.663 1528.68V1514.64C425.461 1514.7 423.703 1515.36 422.39 1516.61C421.086 1517.86 420.434 1519.54 420.434 1521.67C420.434 1523.78 421.086 1525.46 422.39 1526.71C423.703 1527.96 425.461 1528.61 427.663 1528.68ZM434.009 1526.71C435.323 1525.46 435.98 1523.78 435.98 1521.65C435.98 1519.53 435.323 1517.84 434.009 1516.6C432.705 1515.35 430.957 1514.7 428.765 1514.64V1528.68C430.957 1528.61 432.705 1527.96 434.009 1526.71ZM427.663 1529.68C425.113 1529.61 423.08 1528.87 421.564 1527.45C420.057 1526.02 419.304 1524.09 419.304 1521.67C419.304 1519.23 420.062 1517.3 421.578 1515.87C423.095 1514.44 425.123 1513.69 427.663 1513.63V1508.19H428.765V1513.63C431.295 1513.69 433.319 1514.44 434.835 1515.87C436.352 1517.29 437.11 1519.22 437.11 1521.65C437.11 1524.09 436.352 1526.02 434.835 1527.45C433.319 1528.87 431.295 1529.61 428.765 1529.68V1535H427.663V1529.68ZM446.122 1514.63C444.499 1514.63 443.171 1515.2 442.137 1516.34C441.104 1517.48 440.544 1518.98 440.457 1520.84H451.656C451.647 1519 451.13 1517.5 450.106 1516.35C449.092 1515.2 447.764 1514.63 446.122 1514.63ZM451.468 1525.06H452.612C452.352 1526.4 451.647 1527.5 450.497 1528.35C449.357 1529.2 447.942 1529.62 446.252 1529.62C444.117 1529.62 442.422 1528.92 441.167 1527.51C439.921 1526.09 439.298 1524.13 439.298 1521.64C439.298 1519.22 439.921 1517.28 441.167 1515.81C442.422 1514.35 444.079 1513.61 446.136 1513.61C448.145 1513.61 449.758 1514.3 450.975 1515.68C452.192 1517.06 452.801 1518.88 452.801 1521.15V1521.8H440.442V1521.86C440.442 1523.96 440.969 1525.61 442.021 1526.81C443.074 1528.01 444.489 1528.61 446.267 1528.61C447.657 1528.61 448.812 1528.28 449.729 1527.62C450.656 1526.97 451.236 1526.11 451.468 1525.06ZM462.696 1513.61C464.657 1513.61 466.246 1514.36 467.463 1515.84C468.69 1517.32 469.303 1519.25 469.303 1521.62C469.303 1524 468.694 1525.93 467.477 1527.41C466.26 1528.88 464.672 1529.62 462.711 1529.62C461.301 1529.62 460.069 1529.22 459.016 1528.41C457.973 1527.59 457.278 1526.56 456.93 1525.3H456.886V1534.42H455.756V1513.82H456.814V1517.99H456.857C457.215 1516.72 457.925 1515.68 458.987 1514.86C460.059 1514.03 461.296 1513.61 462.696 1513.61ZM462.566 1528.61C464.227 1528.61 465.575 1527.97 466.608 1526.68C467.642 1525.39 468.158 1523.7 468.158 1521.62C468.158 1519.55 467.642 1517.87 466.608 1516.58C465.575 1515.29 464.227 1514.64 462.566 1514.64C460.895 1514.64 459.528 1515.29 458.466 1516.58C457.413 1517.88 456.886 1519.56 456.886 1521.62C456.886 1523.68 457.413 1525.36 458.466 1526.67C459.528 1527.96 460.895 1528.61 462.566 1528.61ZM483.473 1527.45C482.198 1528.9 480.517 1529.62 478.431 1529.62C476.344 1529.62 474.664 1528.9 473.389 1527.45C472.123 1526 471.491 1524.06 471.491 1521.62C471.491 1519.18 472.123 1517.23 473.389 1515.79C474.664 1514.34 476.344 1513.61 478.431 1513.61C480.527 1513.61 482.207 1514.34 483.473 1515.79C484.748 1517.23 485.385 1519.18 485.385 1521.62C485.385 1524.06 484.748 1526 483.473 1527.45ZM474.2 1526.72C475.263 1527.98 476.673 1528.61 478.431 1528.61C480.189 1528.61 481.594 1527.98 482.647 1526.72C483.709 1525.46 484.241 1523.76 484.241 1521.62C484.241 1519.48 483.714 1517.78 482.661 1516.52C481.608 1515.27 480.198 1514.64 478.431 1514.64C476.663 1514.64 475.253 1515.27 474.2 1516.52C473.147 1517.78 472.621 1519.48 472.621 1521.62C472.621 1523.77 473.147 1525.47 474.2 1526.72ZM499.164 1529.42V1514.8H489.471V1529.42H488.355V1513.82H500.279V1529.42H499.164ZM515.231 1527.45C513.956 1528.9 512.276 1529.62 510.189 1529.62C508.103 1529.62 506.422 1528.9 505.147 1527.45C503.882 1526 503.249 1524.06 503.249 1521.62C503.249 1519.18 503.882 1517.23 505.147 1515.79C506.422 1514.34 508.103 1513.61 510.189 1513.61C512.285 1513.61 513.966 1514.34 515.231 1515.79C516.506 1517.23 517.144 1519.18 517.144 1521.62C517.144 1524.06 516.506 1526 515.231 1527.45ZM505.959 1526.72C507.021 1527.98 508.431 1528.61 510.189 1528.61C511.947 1528.61 513.352 1527.98 514.405 1526.72C515.468 1525.46 515.999 1523.76 515.999 1521.62C515.999 1519.48 515.473 1517.78 514.42 1516.52C513.367 1515.27 511.957 1514.64 510.189 1514.64C508.422 1514.64 507.011 1515.27 505.959 1516.52C504.906 1517.78 504.379 1519.48 504.379 1521.62C504.379 1523.77 504.906 1525.47 505.959 1526.72ZM522.693 1522.9C522.625 1523.71 522.543 1524.42 522.446 1525.01C522.359 1525.61 522.224 1526.21 522.041 1526.81C521.867 1527.41 521.654 1527.9 521.403 1528.27C521.162 1528.65 520.843 1528.96 520.447 1529.2C520.061 1529.43 519.611 1529.55 519.1 1529.55C518.704 1529.55 518.433 1529.5 518.288 1529.4V1528.38C518.462 1528.46 518.723 1528.51 519.071 1528.51C519.409 1528.51 519.708 1528.41 519.969 1528.22C520.239 1528.02 520.461 1527.77 520.635 1527.45C520.819 1527.13 520.973 1526.72 521.099 1526.22C521.234 1525.72 521.34 1525.2 521.418 1524.67C521.495 1524.14 521.563 1523.52 521.621 1522.83C521.852 1520.2 522.055 1517.2 522.229 1513.82H531.893V1529.42H530.777V1514.8H523.258C523.016 1518.78 522.828 1521.48 522.693 1522.9ZM540.745 1520.51H536.761V1528.43H540.745C542.03 1528.43 543.058 1528.08 543.831 1527.36C544.604 1526.64 544.99 1525.67 544.99 1524.46C544.99 1523.27 544.604 1522.31 543.831 1521.6C543.058 1520.87 542.03 1520.51 540.745 1520.51ZM535.645 1529.42V1513.82H536.761V1519.54H540.745C542.368 1519.54 543.667 1519.98 544.643 1520.87C545.618 1521.76 546.106 1522.96 546.106 1524.46C546.106 1525.97 545.618 1527.17 544.643 1528.07C543.667 1528.97 542.368 1529.42 540.745 1529.42H535.645ZM550.293 1532.64H549.395L550.336 1526.81H551.539L550.293 1532.64ZM292.067 1566.55C291.835 1566.55 291.574 1566.5 291.284 1566.42V1565.42C291.516 1565.5 291.787 1565.53 292.096 1565.53C292.791 1565.53 293.356 1565.32 293.791 1564.88C294.226 1564.45 294.646 1563.7 295.051 1562.65L295.443 1561.64L289.473 1545.82H290.676L296.022 1560.32H296.051L301.397 1545.82H302.585L296.544 1561.91C295.839 1563.78 295.191 1565.01 294.602 1565.62C294.013 1566.24 293.168 1566.55 292.067 1566.55ZM307.251 1554.9C307.183 1555.71 307.101 1556.42 307.004 1557.01C306.917 1557.61 306.782 1558.21 306.599 1558.81C306.425 1559.41 306.212 1559.9 305.961 1560.27C305.72 1560.65 305.401 1560.96 305.005 1561.2C304.619 1561.43 304.169 1561.55 303.657 1561.55C303.261 1561.55 302.991 1561.5 302.846 1561.4V1560.38C303.02 1560.46 303.281 1560.51 303.629 1560.51C303.967 1560.51 304.266 1560.41 304.527 1560.22C304.797 1560.02 305.019 1559.77 305.193 1559.45C305.377 1559.13 305.531 1558.72 305.657 1558.22C305.792 1557.72 305.898 1557.2 305.976 1556.67C306.053 1556.14 306.121 1555.52 306.178 1554.83C306.41 1552.2 306.613 1549.2 306.787 1545.82H316.451V1561.42H315.335V1546.8H307.816C307.574 1550.78 307.386 1553.48 307.251 1554.9ZM321.319 1561.42H320.203V1545.82H321.319V1559.65H321.391L331.33 1545.82H332.446V1561.42H331.33V1547.6H331.272L321.319 1561.42ZM350.658 1565.55H349.586V1561.42H336.198V1545.82H337.314V1560.43H346.978V1545.82H348.093V1560.43H350.658V1565.55ZM357.844 1560.62C359.399 1560.62 360.722 1560.14 361.814 1559.17C362.905 1558.2 363.451 1557.02 363.451 1555.64V1553.31L358.25 1553.7C356.753 1553.8 355.613 1554.16 354.83 1554.75C354.048 1555.35 353.657 1556.17 353.657 1557.22C353.657 1558.21 354.048 1559.03 354.83 1559.67C355.622 1560.3 356.627 1560.62 357.844 1560.62ZM357.699 1561.62C356.173 1561.62 354.927 1561.22 353.961 1560.41C353.005 1559.58 352.527 1558.52 352.527 1557.22C352.527 1555.88 352.995 1554.84 353.932 1554.09C354.879 1553.33 356.27 1552.89 358.105 1552.76L363.451 1552.36V1550.97C363.451 1549.61 363.055 1548.55 362.263 1547.79C361.481 1547.02 360.389 1546.64 358.989 1546.64C357.665 1546.64 356.584 1546.96 355.743 1547.61C354.903 1548.26 354.391 1549.17 354.207 1550.35H353.121C353.256 1548.91 353.86 1547.76 354.932 1546.9C356.004 1546.04 357.361 1545.61 359.003 1545.61C360.713 1545.61 362.065 1546.09 363.06 1547.03C364.064 1547.98 364.567 1549.27 364.567 1550.9V1561.42H363.48V1558.06H363.451C363.065 1559.12 362.34 1559.98 361.278 1560.64C360.215 1561.29 359.022 1561.62 357.699 1561.62ZM374.085 1540.51H380.88C382.919 1540.51 384.546 1541.08 385.763 1542.22C386.99 1543.35 387.603 1544.86 387.603 1546.76C387.603 1548.64 386.99 1550.15 385.763 1551.29C384.536 1552.42 382.909 1552.99 380.88 1552.99H375.23V1561.42H374.085V1540.51ZM375.23 1541.56V1551.94H380.692C382.46 1551.94 383.855 1551.48 384.879 1550.55C385.913 1549.63 386.43 1548.36 386.43 1546.76C386.43 1545.14 385.913 1543.87 384.879 1542.95C383.855 1542.02 382.46 1541.56 380.692 1541.56H375.23ZM392.442 1566.55C392.21 1566.55 391.95 1566.5 391.66 1566.42V1565.42C391.892 1565.5 392.162 1565.53 392.471 1565.53C393.167 1565.53 393.732 1565.32 394.166 1564.88C394.601 1564.45 395.021 1563.7 395.427 1562.65L395.818 1561.64L389.849 1545.82H391.051L396.398 1560.32H396.427L401.773 1545.82H402.961L396.919 1561.91C396.214 1563.78 395.567 1565.01 394.978 1565.62C394.388 1566.24 393.543 1566.55 392.442 1566.55ZM417.348 1550.21H416.218C415.928 1549.14 415.329 1548.28 414.421 1547.63C413.523 1546.97 412.441 1546.64 411.176 1546.64C409.427 1546.64 408.032 1547.27 406.989 1548.54C405.955 1549.79 405.438 1551.49 405.438 1553.62C405.438 1555.76 405.955 1557.46 406.989 1558.72C408.032 1559.98 409.432 1560.61 411.19 1560.61C412.427 1560.61 413.489 1560.3 414.378 1559.7C415.266 1559.09 415.865 1558.28 416.174 1557.26H417.304C416.986 1558.57 416.276 1559.63 415.174 1560.43C414.073 1561.23 412.74 1561.62 411.176 1561.62C409.08 1561.62 407.409 1560.9 406.163 1559.46C404.926 1558.02 404.308 1556.08 404.308 1553.62C404.308 1551.18 404.931 1549.23 406.177 1547.79C407.423 1546.34 409.089 1545.61 411.176 1545.61C412.75 1545.61 414.093 1546.05 415.203 1546.92C416.324 1547.78 417.039 1548.87 417.348 1550.21ZM432.387 1550.21H431.257C430.967 1549.14 430.368 1548.28 429.46 1547.63C428.562 1546.97 427.48 1546.64 426.215 1546.64C424.466 1546.64 423.071 1547.27 422.027 1548.54C420.994 1549.79 420.477 1551.49 420.477 1553.62C420.477 1555.76 420.994 1557.46 422.027 1558.72C423.071 1559.98 424.471 1560.61 426.229 1560.61C427.465 1560.61 428.528 1560.3 429.417 1559.7C430.305 1559.09 430.904 1558.28 431.213 1557.26H432.343C432.024 1558.57 431.315 1559.63 430.213 1560.43C429.112 1561.23 427.779 1561.62 426.215 1561.62C424.119 1561.62 422.448 1560.9 421.202 1559.46C419.965 1558.02 419.347 1556.08 419.347 1553.62C419.347 1551.18 419.97 1549.23 421.216 1547.79C422.462 1546.34 424.128 1545.61 426.215 1545.61C427.789 1545.61 429.132 1546.05 430.242 1546.92C431.363 1547.78 432.078 1548.87 432.387 1550.21ZM437.588 1553.29L446.759 1561.42H445.18L436.443 1553.67H436.385V1561.42H435.27V1545.82H436.385V1552.99H436.443L444.847 1545.82H446.353L437.588 1553.29ZM453.496 1560.62C455.051 1560.62 456.375 1560.14 457.466 1559.17C458.557 1558.2 459.103 1557.02 459.103 1555.64V1553.31L453.902 1553.7C452.405 1553.8 451.265 1554.16 450.483 1554.75C449.7 1555.35 449.309 1556.17 449.309 1557.22C449.309 1558.21 449.7 1559.03 450.483 1559.67C451.275 1560.3 452.279 1560.62 453.496 1560.62ZM453.351 1561.62C451.825 1561.62 450.579 1561.22 449.613 1560.41C448.657 1559.58 448.179 1558.52 448.179 1557.22C448.179 1555.88 448.647 1554.84 449.584 1554.09C450.531 1553.33 451.922 1552.89 453.757 1552.76L459.103 1552.36V1550.97C459.103 1549.61 458.707 1548.55 457.915 1547.79C457.133 1547.02 456.041 1546.64 454.641 1546.64C453.318 1546.64 452.236 1546.96 451.395 1547.61C450.555 1548.26 450.043 1549.17 449.86 1550.35H448.773C448.908 1548.91 449.512 1547.76 450.584 1546.9C451.656 1546.04 453.013 1545.61 454.655 1545.61C456.365 1545.61 457.717 1546.09 458.712 1547.03C459.717 1547.98 460.219 1549.27 460.219 1550.9V1561.42H459.132V1558.06H459.103C458.717 1559.12 457.992 1559.98 456.93 1560.64C455.867 1561.29 454.675 1561.62 453.351 1561.62ZM468.506 1554.15H472.693V1546.8H468.506C467.212 1546.8 466.178 1547.14 465.406 1547.81C464.633 1548.48 464.247 1549.38 464.247 1550.51C464.247 1551.6 464.633 1552.48 465.406 1553.15C466.188 1553.81 467.222 1554.15 468.506 1554.15ZM472.693 1561.42V1555.13H468.723L464.015 1561.42H462.682L467.506 1554.99C466.154 1554.83 465.087 1554.36 464.305 1553.57C463.522 1552.77 463.131 1551.76 463.131 1550.52C463.131 1549.08 463.614 1547.93 464.58 1547.09C465.555 1546.24 466.864 1545.82 468.506 1545.82H473.809V1561.42H472.693ZM478.836 1564.64H477.938L478.88 1558.81H480.082L478.836 1564.64ZM494.397 1551.07V1550.06H496.73C498.304 1550.06 499.589 1549.65 500.583 1548.81C501.578 1547.98 502.076 1546.91 502.076 1545.6C502.076 1544.34 501.588 1543.3 500.612 1542.48C499.646 1541.65 498.405 1541.24 496.889 1541.24C495.469 1541.24 494.266 1541.65 493.281 1542.47C492.306 1543.28 491.774 1544.31 491.688 1545.55H490.572C490.659 1544 491.296 1542.72 492.484 1541.72C493.672 1540.71 495.155 1540.21 496.932 1540.21C498.729 1540.21 500.226 1540.71 501.424 1541.72C502.621 1542.72 503.22 1543.98 503.22 1545.5C503.22 1546.79 502.824 1547.89 502.032 1548.79C501.24 1549.67 500.158 1550.24 498.787 1550.5V1550.55C500.41 1550.66 501.704 1551.18 502.67 1552.12C503.645 1553.05 504.133 1554.25 504.133 1555.73C504.133 1557.45 503.462 1558.89 502.119 1560.03C500.786 1561.16 499.11 1561.72 497.092 1561.72C495.102 1561.72 493.445 1561.2 492.122 1560.14C490.809 1559.08 490.132 1557.75 490.094 1556.16H491.209C491.258 1557.45 491.837 1558.54 492.948 1559.41C494.068 1560.27 495.45 1560.7 497.092 1560.7C498.782 1560.7 500.183 1560.23 501.293 1559.3C502.414 1558.37 502.974 1557.18 502.974 1555.75C502.974 1554.3 502.423 1553.15 501.322 1552.32C500.221 1551.49 498.7 1551.07 496.758 1551.07H494.397ZM514.043 1561.72C511.889 1561.72 510.141 1561.16 508.798 1560.04C507.456 1558.91 506.784 1557.47 506.784 1555.71C506.784 1554.38 507.234 1553.22 508.132 1552.23C509.04 1551.24 510.218 1550.61 511.667 1550.34V1550.29C510.411 1550.01 509.412 1549.45 508.668 1548.61C507.924 1547.76 507.552 1546.76 507.552 1545.61C507.552 1544.04 508.156 1542.74 509.363 1541.73C510.58 1540.72 512.14 1540.21 514.043 1540.21C515.946 1540.21 517.501 1540.72 518.708 1541.73C519.925 1542.74 520.534 1544.04 520.534 1545.61C520.534 1546.73 520.157 1547.72 519.404 1548.57C518.66 1549.42 517.675 1549.99 516.448 1550.29V1550.34C517.887 1550.61 519.056 1551.24 519.954 1552.23C520.862 1553.22 521.316 1554.38 521.316 1555.71C521.316 1557.48 520.645 1558.92 519.302 1560.04C517.96 1561.16 516.207 1561.72 514.043 1561.72ZM509.624 1559.28C510.745 1560.22 512.218 1560.7 514.043 1560.7C515.869 1560.7 517.342 1560.22 518.462 1559.28C519.592 1558.33 520.157 1557.13 520.157 1555.67C520.157 1554.27 519.592 1553.12 518.462 1552.23C517.342 1551.35 515.869 1550.9 514.043 1550.9C512.227 1550.9 510.754 1551.35 509.624 1552.25C508.504 1553.14 507.943 1554.28 507.943 1555.67C507.943 1557.13 508.504 1558.33 509.624 1559.28ZM514.043 1549.84C515.608 1549.84 516.888 1549.45 517.883 1548.67C518.887 1547.89 519.389 1546.89 519.389 1545.67C519.389 1544.39 518.897 1543.33 517.911 1542.5C516.936 1541.66 515.646 1541.24 514.043 1541.24C512.449 1541.24 511.155 1541.66 510.16 1542.5C509.175 1543.34 508.682 1544.4 508.682 1545.67C508.682 1546.89 509.185 1547.89 510.189 1548.67C511.203 1549.45 512.488 1549.84 514.043 1549.84ZM536.804 1561.71C534.573 1561.71 532.854 1560.94 531.646 1559.39C530.449 1557.85 529.85 1555.64 529.85 1552.77C529.85 1550.85 529.937 1549.19 530.111 1547.8C530.294 1546.4 530.574 1545.19 530.951 1544.16C531.328 1543.14 531.83 1542.32 532.458 1541.7C533.095 1541.08 533.854 1540.63 534.732 1540.34C535.611 1540.04 536.655 1539.88 537.862 1539.86C538.712 1539.86 539.485 1539.83 540.18 1539.76C541.291 1539.66 542.146 1539.48 542.745 1539.22V1540.21C542.242 1540.49 541.416 1540.68 540.267 1540.77C539.533 1540.86 538.736 1540.9 537.876 1540.9C536.669 1540.91 535.655 1541.08 534.834 1541.4C534.023 1541.71 533.342 1542.22 532.791 1542.95C532.24 1543.67 531.815 1544.58 531.516 1545.69C531.226 1546.79 531.009 1548.18 530.864 1549.87H530.922C531.405 1548.61 532.168 1547.63 533.211 1546.93C534.254 1546.23 535.486 1545.87 536.906 1545.87C538.992 1545.87 540.658 1546.59 541.904 1548.02C543.15 1549.44 543.773 1551.33 543.773 1553.7C543.773 1556.13 543.141 1558.08 541.875 1559.54C540.61 1560.98 538.92 1561.71 536.804 1561.71ZM536.804 1560.68C538.582 1560.68 539.997 1560.05 541.049 1558.8C542.102 1557.53 542.629 1555.83 542.629 1553.7C542.629 1551.62 542.102 1549.97 541.049 1548.74C540.006 1547.52 538.591 1546.9 536.804 1546.9C535.017 1546.9 533.598 1547.52 532.545 1548.74C531.502 1549.97 530.98 1551.62 530.98 1553.7C530.98 1555.83 531.502 1557.53 532.545 1558.8C533.598 1560.05 535.017 1560.68 536.804 1560.68Z" fill="#820201"/>
</svg>
