<svg width="834" height="2173" viewBox="0 0 834 2173" fill="none" xmlns="http://www.w3.org/2000/svg">
<rect width="834" height="1359" fill="#820201"/>
<path d="M374.292 226H371.75V196.773H366.328V196.349H374.292V226ZM389.554 226.424C386.039 226.424 378.118 224.856 378.118 215.834C378.118 207.659 384.598 205.16 388.029 204.863V204.779C385.446 204.482 382.777 202.618 382.777 200.161C382.777 197.408 386.039 195.926 389.554 195.926C393.07 195.926 396.332 197.408 396.332 200.161C396.332 202.618 393.663 204.482 391.079 204.779V204.863C394.51 205.16 400.991 207.659 400.991 215.834C400.991 224.856 393.07 226.424 389.554 226.424ZM385.318 200.161C385.318 202.83 386.674 204.44 389.554 204.44C392.435 204.44 393.79 202.83 393.79 200.161C393.79 197.493 392.435 196.349 389.554 196.349C386.674 196.349 385.318 197.493 385.318 200.161ZM389.554 226C392.435 226 398.026 224.602 398.026 215.834C398.026 207.066 392.435 205.16 389.554 205.16C386.674 205.16 381.083 207.066 381.083 215.834C381.083 224.602 386.674 226 389.554 226ZM408.558 211.259C408.558 210.285 409.236 209.607 410.21 209.607C411.227 209.607 411.862 210.285 411.862 211.259C411.862 212.276 411.227 212.911 410.21 212.911C409.236 212.911 408.558 212.276 408.558 211.259ZM408.558 224.814C408.558 223.84 409.236 223.162 410.21 223.162C411.227 223.162 411.862 223.84 411.862 224.814C411.862 225.831 411.227 226.466 410.21 226.466C409.236 226.466 408.558 225.831 408.558 224.814ZM417.001 211.175C417.001 197.493 424.922 195.926 428.438 195.926C431.953 195.926 439.874 197.493 439.874 211.175C439.874 224.856 431.953 226.424 428.438 226.424C424.922 226.424 417.001 224.856 417.001 211.175ZM436.909 211.175C436.909 197.747 431.318 196.349 428.438 196.349C425.557 196.349 419.966 197.747 419.966 211.175C419.966 224.602 425.557 226 428.438 226C431.318 226 436.909 224.602 436.909 211.175ZM442.813 211.175C442.813 197.493 450.734 195.926 454.25 195.926C457.766 195.926 465.687 197.493 465.687 211.175C465.687 224.856 457.766 226.424 454.25 226.424C450.734 226.424 442.813 224.856 442.813 211.175ZM462.721 211.175C462.721 197.747 457.13 196.349 454.25 196.349C451.369 196.349 445.778 197.747 445.778 211.175C445.778 224.602 451.369 226 454.25 226C457.13 226 462.721 224.602 462.721 211.175Z" fill="white"/>
<path d="M375.205 365H372.664V335.773H367.242V335.349H375.205V365ZM390.468 365.424C386.952 365.424 379.031 363.856 379.031 354.834C379.031 346.659 385.512 344.16 388.943 343.863V343.779C386.359 343.482 383.691 341.618 383.691 339.161C383.691 336.408 386.952 334.926 390.468 334.926C393.984 334.926 397.245 336.408 397.245 339.161C397.245 341.618 394.577 343.482 391.993 343.779V343.863C395.424 344.16 401.905 346.659 401.905 354.834C401.905 363.856 393.984 365.424 390.468 365.424ZM386.232 339.161C386.232 341.83 387.588 343.44 390.468 343.44C393.348 343.44 394.704 341.83 394.704 339.161C394.704 336.493 393.348 335.349 390.468 335.349C387.588 335.349 386.232 336.493 386.232 339.161ZM390.468 365C393.348 365 398.94 363.602 398.94 354.834C398.94 346.066 393.348 344.16 390.468 344.16C387.588 344.16 381.996 346.066 381.996 354.834C381.996 363.602 387.588 365 390.468 365ZM409.472 350.259C409.472 349.285 410.15 348.607 411.124 348.607C412.14 348.607 412.776 349.285 412.776 350.259C412.776 351.276 412.14 351.911 411.124 351.911C410.15 351.911 409.472 351.276 409.472 350.259ZM409.472 363.814C409.472 362.84 410.15 362.162 411.124 362.162C412.14 362.162 412.776 362.84 412.776 363.814C412.776 364.831 412.14 365.466 411.124 365.466C410.15 365.466 409.472 364.831 409.472 363.814ZM430.199 343.821C434.223 343.821 440.788 346.659 440.788 354.834C440.788 363.856 432.867 365.424 429.351 365.424C425.836 365.424 417.915 363.856 417.915 354.834H420.88C420.88 363.602 426.471 365 429.351 365C432.232 365 437.823 363.602 437.823 354.834C437.823 346.066 432.232 344.16 429.351 344.16V343.821L431.978 337.891H423.421L424.565 335.349H433.714L429.944 343.821H430.199ZM442.899 350.175C442.899 336.493 450.82 334.926 454.336 334.926C457.852 334.926 465.773 336.493 465.773 350.175C465.773 363.856 457.852 365.424 454.336 365.424C450.82 365.424 442.899 363.856 442.899 350.175ZM462.808 350.175C462.808 336.747 457.216 335.349 454.336 335.349C451.456 335.349 445.864 336.747 445.864 350.175C445.864 363.602 451.456 365 454.336 365C457.216 365 462.808 363.602 462.808 350.175Z" fill="white"/>
<path d="M375.292 504H372.75V474.773H367.328V474.349H375.292V504ZM390.554 474.349C394.07 474.349 401.991 475.917 401.991 484.939C401.991 488.455 400.805 490.911 399.111 492.606L389.453 504H385.641L395.849 494.935L395.764 494.851C393.858 495.698 391.867 495.952 390.554 495.952C387.039 495.952 379.118 493.961 379.118 484.939C379.118 475.917 387.039 474.349 390.554 474.349ZM390.554 495.528C393.435 495.528 399.026 493.707 399.026 484.939C399.026 476.171 393.435 474.773 390.554 474.773C387.674 474.773 382.083 476.171 382.083 484.939C382.083 493.707 387.674 495.528 390.554 495.528ZM409.558 489.259C409.558 488.285 410.236 487.607 411.21 487.607C412.227 487.607 412.862 488.285 412.862 489.259C412.862 490.276 412.227 490.911 411.21 490.911C410.236 490.911 409.558 490.276 409.558 489.259ZM409.558 502.814C409.558 501.84 410.236 501.162 411.21 501.162C412.227 501.162 412.862 501.84 412.862 502.814C412.862 503.831 412.227 504.466 411.21 504.466C410.236 504.466 409.558 503.831 409.558 502.814ZM418.001 489.175C418.001 475.493 425.922 473.926 429.438 473.926C432.953 473.926 440.874 475.493 440.874 489.175C440.874 502.856 432.953 504.424 429.438 504.424C425.922 504.424 418.001 502.856 418.001 489.175ZM437.909 489.175C437.909 475.747 432.318 474.349 429.438 474.349C426.557 474.349 420.966 475.747 420.966 489.175C420.966 502.602 426.557 504 429.438 504C432.318 504 437.909 502.602 437.909 489.175ZM443.813 489.175C443.813 475.493 451.734 473.926 455.25 473.926C458.766 473.926 466.687 475.493 466.687 489.175C466.687 502.856 458.766 504.424 455.25 504.424C451.734 504.424 443.813 502.856 443.813 489.175ZM463.721 489.175C463.721 475.747 458.13 474.349 455.25 474.349C452.369 474.349 446.778 475.747 446.778 489.175C446.778 502.602 452.369 504 455.25 504C458.13 504 463.721 502.602 463.721 489.175Z" fill="white"/>
<path d="M379.197 694H376.656V664.773H371.234V664.349H379.197V694ZM394.46 664.349C397.975 664.349 405.896 665.917 405.896 674.939C405.896 678.455 404.71 680.911 403.016 682.606L393.358 694H389.546L399.754 684.935L399.67 684.851C397.764 685.698 395.773 685.952 394.46 685.952C390.944 685.952 383.023 683.961 383.023 674.939C383.023 665.917 390.944 664.349 394.46 664.349ZM394.46 685.528C397.34 685.528 402.931 683.707 402.931 674.939C402.931 666.171 397.34 664.773 394.46 664.773C391.579 664.773 385.988 666.171 385.988 674.939C385.988 683.707 391.579 685.528 394.46 685.528ZM413.464 679.259C413.464 678.285 414.141 677.607 415.116 677.607C416.132 677.607 416.768 678.285 416.768 679.259C416.768 680.276 416.132 680.911 415.116 680.911C414.141 680.911 413.464 680.276 413.464 679.259ZM413.464 692.814C413.464 691.84 414.141 691.162 415.116 691.162C416.132 691.162 416.768 691.84 416.768 692.814C416.768 693.831 416.132 694.466 415.116 694.466C414.141 694.466 413.464 693.831 413.464 692.814ZM434.021 694H431.479V682.351H421.906C421.906 682.351 428.218 677.607 428.43 664.349H431.225C430.632 672.482 424.575 680.107 423.05 681.928H431.479V673.668H434.021V681.928H435.969V682.351H434.021V694ZM445.685 674.896V664.349H456.486L455.343 666.891H446.109V674.176C447.718 673.372 449.243 673.244 450.344 673.244C453.86 673.244 461.781 674.812 461.781 683.834C461.781 692.856 453.86 694.424 450.344 694.424C446.829 694.424 438.908 692.856 438.908 683.834H441.873C441.873 692.602 447.464 694 450.344 694C453.225 694 458.816 692.602 458.816 683.834C458.816 675.066 453.225 673.668 450.344 673.668C449.074 673.668 447.295 673.88 445.685 674.896Z" fill="white"/>
<path d="M377.84 809.279C377.84 804.917 375.638 803.349 372.757 803.349C369.877 803.349 367.674 804.493 367.674 809.279H364.709C364.709 804.408 369.241 802.926 372.757 802.926C376.273 802.926 380.805 804.832 380.805 809.279C380.805 815.464 371.571 823.724 366.149 830.416L380.466 830.459L379.323 833H363.354C370.639 824.571 377.84 815.675 377.84 809.279ZM382.92 818.175C382.92 804.493 390.841 802.926 394.356 802.926C397.872 802.926 405.793 804.493 405.793 818.175C405.793 831.856 397.872 833.424 394.356 833.424C390.841 833.424 382.92 831.856 382.92 818.175ZM402.828 818.175C402.828 804.747 397.237 803.349 394.356 803.349C391.476 803.349 385.885 804.747 385.885 818.175C385.885 831.602 391.476 833 394.356 833C397.237 833 402.828 831.602 402.828 818.175ZM413.36 818.259C413.36 817.285 414.038 816.607 415.012 816.607C416.029 816.607 416.664 817.285 416.664 818.259C416.664 819.276 416.029 819.911 415.012 819.911C414.038 819.911 413.36 819.276 413.36 818.259ZM413.36 831.814C413.36 830.84 414.038 830.162 415.012 830.162C416.029 830.162 416.664 830.84 416.664 831.814C416.664 832.831 416.029 833.466 415.012 833.466C414.038 833.466 413.36 832.831 413.36 831.814ZM434.087 811.821C438.111 811.821 444.676 814.659 444.676 822.834C444.676 831.856 436.755 833.424 433.24 833.424C429.724 833.424 421.803 831.856 421.803 822.834H424.768C424.768 831.602 430.359 833 433.24 833C436.12 833 441.711 831.602 441.711 822.834C441.711 814.066 436.12 812.16 433.24 812.16V811.821L435.866 805.891H427.31L428.453 803.349H437.603L433.833 811.821H434.087ZM446.788 818.175C446.788 804.493 454.709 802.926 458.224 802.926C461.74 802.926 469.661 804.493 469.661 818.175C469.661 831.856 461.74 833.424 458.224 833.424C454.709 833.424 446.788 831.856 446.788 818.175ZM466.696 818.175C466.696 804.747 461.105 803.349 458.224 803.349C455.344 803.349 449.753 804.747 449.753 818.175C449.753 831.602 455.344 833 458.224 833C461.105 833 466.696 831.602 466.696 818.175Z" fill="white"/>
<path d="M331.57 251.878C333.969 249.106 337.202 247.72 341.27 247.72C345.337 247.72 348.571 249.106 350.97 251.878C353.369 254.649 354.569 258.379 354.569 263.067C354.569 267.783 353.369 271.526 350.97 274.298C348.585 277.055 345.351 278.434 341.27 278.434C337.188 278.434 333.948 277.055 331.549 274.298C329.163 271.526 327.971 267.783 327.971 263.067C327.971 258.379 329.17 254.649 331.57 251.878ZM349.729 252.995C347.633 250.499 344.813 249.251 341.27 249.251C337.726 249.251 334.899 250.499 332.79 252.995C330.694 255.477 329.646 258.834 329.646 263.067C329.646 267.286 330.694 270.651 332.79 273.16C334.899 275.656 337.726 276.904 341.27 276.904C344.813 276.904 347.633 275.656 349.729 273.16C351.839 270.665 352.893 267.3 352.893 263.067C352.893 258.834 351.839 255.477 349.729 252.995ZM368.84 278.414C365.655 278.414 363.2 277.311 361.477 275.104C359.767 272.898 358.912 269.748 358.912 265.652C358.912 262.909 359.036 260.544 359.284 258.558C359.546 256.559 359.946 254.828 360.484 253.367C361.022 251.905 361.739 250.733 362.635 249.851C363.545 248.968 364.627 248.32 365.882 247.907C367.137 247.479 368.626 247.252 370.35 247.224C371.563 247.224 372.666 247.176 373.659 247.079C375.245 246.941 376.465 246.686 377.32 246.314V247.72C376.603 248.12 375.424 248.389 373.783 248.527C372.735 248.651 371.597 248.713 370.37 248.713C368.647 248.727 367.199 248.961 366.027 249.416C364.869 249.858 363.897 250.595 363.111 251.63C362.325 252.664 361.718 253.967 361.291 255.539C360.877 257.11 360.567 259.103 360.36 261.516H360.443C361.132 259.71 362.221 258.31 363.71 257.317C365.2 256.311 366.958 255.807 368.985 255.807C371.963 255.807 374.341 256.828 376.12 258.868C377.899 260.895 378.788 263.598 378.788 266.976C378.788 270.451 377.885 273.229 376.079 275.311C374.272 277.38 371.859 278.414 368.84 278.414ZM368.84 276.945C371.377 276.945 373.397 276.049 374.9 274.256C376.403 272.45 377.154 270.023 377.154 266.976C377.154 264.012 376.403 261.654 374.9 259.903C373.411 258.151 371.391 257.276 368.84 257.276C366.289 257.276 364.262 258.151 362.759 259.903C361.27 261.654 360.525 264.012 360.525 266.976C360.525 270.023 361.27 272.45 362.759 274.256C364.262 276.049 366.289 276.945 368.84 276.945ZM413.783 283.895H412.253V278H383.028V255.725H384.621V276.594H395.769V255.725H397.361V276.594H408.509V255.725H410.102V276.594H413.783V283.895ZM425.738 256.883C423.421 256.883 421.526 257.696 420.05 259.324C418.575 260.951 417.775 263.095 417.651 265.756H433.639C433.625 263.122 432.887 260.985 431.426 259.344C429.978 257.703 428.082 256.883 425.738 256.883ZM433.37 271.775H435.004C434.632 273.691 433.625 275.256 431.984 276.469C430.357 277.683 428.337 278.29 425.924 278.29C422.877 278.29 420.457 277.283 418.664 275.27C416.886 273.243 415.996 270.451 415.996 266.893C415.996 263.446 416.886 260.675 418.664 258.579C420.457 256.483 422.822 255.435 425.759 255.435C428.627 255.435 430.929 256.421 432.667 258.393C434.404 260.351 435.273 262.95 435.273 266.19V267.121H417.63V267.204C417.63 270.21 418.382 272.567 419.885 274.277C421.388 275.987 423.408 276.842 425.945 276.842C427.93 276.842 429.578 276.373 430.888 275.435C432.212 274.498 433.039 273.277 433.37 271.775ZM455.128 278V267.162H441.085V278H439.492V255.725H441.085V265.756H455.128V255.725H456.721V278H455.128ZM463.67 278H462.077V255.725H463.67V275.477H463.773L477.962 255.725H479.554V278H477.962V258.269H477.879L463.67 278ZM493.536 256.883C491.219 256.883 489.324 257.696 487.848 259.324C486.373 260.951 485.573 263.095 485.449 265.756H501.437C501.423 263.122 500.685 260.985 499.224 259.344C497.776 257.703 495.88 256.883 493.536 256.883ZM501.168 271.775H502.802C502.429 273.691 501.423 275.256 499.782 276.469C498.155 277.683 496.135 278.29 493.722 278.29C490.675 278.29 488.255 277.283 486.462 275.27C484.684 273.243 483.794 270.451 483.794 266.893C483.794 263.446 484.684 260.675 486.462 258.579C488.255 256.483 490.62 255.435 493.557 255.435C496.425 255.435 498.727 256.421 500.465 258.393C502.202 260.351 503.071 262.95 503.071 266.19V267.121H485.428V267.204C485.428 270.21 486.18 272.567 487.683 274.277C489.186 275.987 491.206 276.842 493.743 276.842C495.728 276.842 497.376 276.373 498.686 275.435C500.01 274.498 500.837 273.277 501.168 271.775Z" fill="white"/>
<path d="M380.853 417H379.219V388.665H360.604V417H358.971V387.155H380.853V417ZM395 395.883C392.683 395.883 390.787 396.696 389.312 398.324C387.837 399.951 387.037 402.095 386.913 404.756H402.901C402.887 402.122 402.149 399.985 400.688 398.344C399.24 396.703 397.344 395.883 395 395.883ZM402.632 410.775H404.266C403.893 412.691 402.887 414.256 401.246 415.469C399.619 416.683 397.599 417.29 395.186 417.29C392.139 417.29 389.719 416.283 387.926 414.27C386.148 412.243 385.258 409.451 385.258 405.893C385.258 402.446 386.148 399.675 387.926 397.579C389.719 395.483 392.084 394.435 395.02 394.435C397.888 394.435 400.191 395.421 401.929 397.393C403.666 399.351 404.535 401.95 404.535 405.19V406.121H386.892V406.204C386.892 409.21 387.644 411.567 389.147 413.277C390.65 414.987 392.67 415.842 395.207 415.842C397.192 415.842 398.84 415.373 400.15 414.435C401.473 413.498 402.301 412.277 402.632 410.775ZM424.39 417V406.162H410.346V417H408.754V394.725H410.346V404.756H424.39V394.725H425.983V417H424.39ZM432.932 417H431.339V394.725H432.932V414.477H433.035L447.224 394.725H448.816V417H447.224V397.269H447.141L432.932 417ZM462.798 395.883C460.481 395.883 458.585 396.696 457.11 398.324C455.635 399.951 454.835 402.095 454.711 404.756H470.699C470.685 402.122 469.947 399.985 468.486 398.344C467.038 396.703 465.142 395.883 462.798 395.883ZM470.43 410.775H472.064C471.691 412.691 470.685 414.256 469.044 415.469C467.417 416.683 465.397 417.29 462.984 417.29C459.937 417.29 457.517 416.283 455.724 414.27C453.946 412.243 453.056 409.451 453.056 405.893C453.056 402.446 453.946 399.675 455.724 397.579C457.517 395.483 459.882 394.435 462.818 394.435C465.686 394.435 467.989 395.421 469.726 397.393C471.464 399.351 472.333 401.95 472.333 405.19V406.121H454.69V406.204C454.69 409.21 455.442 411.567 456.945 413.277C458.448 414.987 460.468 415.842 463.005 415.842C464.99 415.842 466.638 415.373 467.948 414.435C469.271 413.498 470.099 412.277 470.43 410.775Z" fill="white"/>
<path d="M258.029 526.155H267.729C270.639 526.155 272.962 526.968 274.699 528.595C276.45 530.209 277.326 532.367 277.326 535.069C277.326 537.758 276.45 539.916 274.699 541.543C272.948 543.156 270.625 543.963 267.729 543.963H259.663V556H258.029V526.155ZM259.663 527.644V542.474H267.46C269.984 542.474 271.976 541.812 273.438 540.488C274.913 539.164 275.651 537.358 275.651 535.069C275.651 532.766 274.913 530.953 273.438 529.63C271.976 528.306 269.984 527.644 267.46 527.644H259.663ZM297.078 553.187C295.258 555.255 292.859 556.29 289.88 556.29C286.902 556.29 284.503 555.255 282.683 553.187C280.877 551.119 279.973 548.347 279.973 544.873C279.973 541.384 280.877 538.606 282.683 536.538C284.503 534.469 286.902 533.435 289.88 533.435C292.872 533.435 295.272 534.469 297.078 536.538C298.898 538.606 299.808 541.384 299.808 544.873C299.808 548.347 298.898 551.119 297.078 553.187ZM283.841 552.153C285.358 553.946 287.371 554.842 289.88 554.842C292.39 554.842 294.396 553.946 295.899 552.153C297.416 550.347 298.174 547.92 298.174 544.873C298.174 541.812 297.423 539.385 295.92 537.592C294.417 535.8 292.404 534.904 289.88 534.904C287.357 534.904 285.344 535.8 283.841 537.592C282.338 539.385 281.587 541.812 281.587 544.873C281.587 547.934 282.338 550.361 283.841 552.153ZM317.926 544.356L329.674 556H327.44L316.334 544.935H316.251V556H314.658V544.935H314.576L303.469 556H301.297L313.004 544.418L301.794 533.725H303.945L314.576 543.963H314.658V533.725H316.251V543.963H316.334L326.965 533.725H329.074L317.926 544.356ZM348.868 554.594V535.131H337.575C337.244 540.495 336.961 544.349 336.727 546.693C336.547 548.596 336.292 550.202 335.961 551.512C335.631 552.808 335.141 553.815 334.493 554.532V554.594H348.868ZM332.239 561.895H330.708V554.594H332.466C333.914 553.642 334.831 550.974 335.217 546.589C335.617 542.136 335.92 537.847 336.127 533.725H350.46V554.594H354.142V561.895H352.611V556H332.239V561.895ZM366.076 534.883C363.759 534.883 361.863 535.696 360.388 537.324C358.912 538.951 358.113 541.095 357.989 543.756H373.976C373.963 541.122 373.225 538.985 371.763 537.344C370.315 535.703 368.42 534.883 366.076 534.883ZM373.707 549.775H375.341C374.969 551.691 373.963 553.256 372.322 554.469C370.695 555.683 368.675 556.29 366.262 556.29C363.214 556.29 360.795 555.283 359.002 553.27C357.223 551.243 356.334 548.451 356.334 544.893C356.334 541.446 357.223 538.675 359.002 536.579C360.795 534.483 363.159 533.435 366.096 533.435C368.964 533.435 371.267 534.421 373.004 536.393C374.742 538.351 375.61 540.95 375.61 544.19V545.121H357.968V545.204C357.968 548.21 358.719 550.567 360.222 552.277C361.725 553.987 363.745 554.842 366.282 554.842C368.268 554.842 369.916 554.373 371.226 553.435C372.549 552.498 373.377 551.277 373.707 549.775ZM397.182 539.992H395.569C395.155 538.475 394.301 537.248 393.004 536.31C391.722 535.372 390.178 534.904 388.371 534.904C385.876 534.904 383.883 535.807 382.394 537.613C380.919 539.406 380.181 541.825 380.181 544.873C380.181 547.92 380.919 550.347 382.394 552.153C383.883 553.946 385.883 554.842 388.392 554.842C390.157 554.842 391.674 554.407 392.942 553.539C394.211 552.67 395.066 551.512 395.507 550.064H397.12C396.665 551.939 395.652 553.449 394.08 554.594C392.508 555.724 390.605 556.29 388.371 556.29C385.379 556.29 382.994 555.262 381.215 553.208C379.45 551.153 378.568 548.375 378.568 544.873C378.568 541.384 379.457 538.606 381.236 536.538C383.015 534.469 385.393 533.435 388.371 533.435C390.619 533.435 392.536 534.056 394.121 535.297C395.721 536.524 396.741 538.089 397.182 539.992ZM416.541 533.725V535.131H408.454V556H406.862V535.131H398.754V533.725H416.541ZM428.227 535.152H421.629V543.777H428C429.696 543.777 431.026 543.377 431.991 542.577C432.97 541.777 433.46 540.681 433.46 539.288C433.46 537.978 432.998 536.965 432.074 536.248C431.164 535.517 429.882 535.152 428.227 535.152ZM428.082 545.183H421.629V554.594H428.434C430.475 554.594 432.019 554.187 433.067 553.373C434.115 552.56 434.639 551.353 434.639 549.754C434.639 548.265 434.06 547.134 432.901 546.362C431.743 545.576 430.137 545.183 428.082 545.183ZM420.037 556V533.725H428.331C430.399 533.725 432.033 534.214 433.232 535.193C434.446 536.172 435.052 537.496 435.052 539.164C435.052 540.502 434.666 541.639 433.894 542.577C433.122 543.515 432.102 544.101 430.833 544.335V544.418C432.377 544.556 433.66 545.1 434.68 546.052C435.7 546.989 436.211 548.23 436.211 549.775C436.211 551.788 435.535 553.332 434.184 554.407C432.846 555.469 430.943 556 428.475 556H420.037ZM449.013 534.883C446.697 534.883 444.801 535.696 443.325 537.324C441.85 538.951 441.05 541.095 440.926 543.756H456.914C456.9 541.122 456.163 538.985 454.701 537.344C453.253 535.703 451.357 534.883 449.013 534.883ZM456.645 549.775H458.279C457.907 551.691 456.9 553.256 455.259 554.469C453.632 555.683 451.612 556.29 449.199 556.29C446.152 556.29 443.732 555.283 441.94 553.27C440.161 551.243 439.272 548.451 439.272 544.893C439.272 541.446 440.161 538.675 441.94 536.579C443.732 534.483 446.097 533.435 449.034 533.435C451.902 533.435 454.205 534.421 455.942 536.393C457.679 538.351 458.548 540.95 458.548 544.19V545.121H440.906V545.204C440.906 548.21 441.657 550.567 443.16 552.277C444.663 553.987 446.683 554.842 449.22 554.842C451.206 554.842 452.853 554.373 454.163 553.435C455.487 552.498 456.314 551.277 456.645 549.775ZM478.403 556V545.162H464.36V556H462.767V533.725H464.36V543.756H478.403V533.725H479.996V556H478.403ZM502.706 539.992H501.092C500.679 538.475 499.824 537.248 498.528 536.31C497.245 535.372 495.701 534.904 493.895 534.904C491.399 534.904 489.407 535.807 487.917 537.613C486.442 539.406 485.704 541.825 485.704 544.873C485.704 547.92 486.442 550.347 487.917 552.153C489.407 553.946 491.406 554.842 493.915 554.842C495.68 554.842 497.197 554.407 498.466 553.539C499.734 552.67 500.589 551.512 501.03 550.064H502.644C502.188 551.939 501.175 553.449 499.603 554.594C498.031 555.724 496.128 556.29 493.895 556.29C490.903 556.29 488.517 555.262 486.739 553.208C484.974 551.153 484.091 548.375 484.091 544.873C484.091 541.384 484.98 538.606 486.759 536.538C488.538 534.469 490.916 533.435 493.895 533.435C496.142 533.435 498.059 534.056 499.645 535.297C501.244 536.524 502.264 538.089 502.706 539.992ZM510.131 544.397L523.223 556H520.968L508.497 544.935H508.414V556H506.821V533.725H508.414V543.963H508.497L520.493 533.725H522.644L510.131 544.397ZM528.021 556H526.429V533.725H528.021V553.477H528.125L542.313 533.725H543.906V556H542.313V536.269H542.23L528.021 556ZM552.737 524.914H554.081C554.081 526.169 554.468 527.168 555.24 527.913C556.012 528.644 557.06 529.009 558.383 529.009C559.707 529.009 560.755 528.644 561.527 527.913C562.299 527.168 562.685 526.169 562.685 524.914H564.03C564.03 526.527 563.52 527.803 562.499 528.74C561.479 529.678 560.107 530.147 558.383 530.147C556.66 530.147 555.288 529.678 554.268 528.74C553.247 527.803 552.737 526.527 552.737 524.914ZM550.855 556H549.262V533.725H550.855V553.477H550.958L565.147 533.725H566.739V556H565.147V536.269H565.064L550.855 556ZM373.459 614.322C373.128 614.322 372.756 614.26 372.342 614.136V612.708C372.673 612.819 373.059 612.874 373.501 612.874C374.493 612.874 375.3 612.564 375.921 611.943C376.541 611.323 377.141 610.261 377.72 608.758L378.278 607.31L369.757 584.725H371.474L379.106 605.428H379.147L386.779 584.725H388.475L379.85 607.703C378.844 610.364 377.92 612.129 377.079 612.998C376.238 613.88 375.031 614.322 373.459 614.322ZM406.035 595.356L417.782 607H415.549L404.442 595.935H404.359V607H402.767V595.935H402.684L391.577 607H389.406L401.112 595.418L389.902 584.725H392.053L402.684 594.963H402.767V584.725H404.359V594.963H404.442L415.073 584.725H417.183L406.035 595.356ZM422.581 607H420.988V584.725H422.581V604.477H422.684L436.872 584.725H438.465V607H436.872V587.269H436.79L422.581 607ZM459.458 607V596.162H445.414V607H443.822V584.725H445.414V594.756H459.458V584.725H461.051V607H459.458Z" fill="white"/>
<path d="M336.964 746H335.33V717.665H316.716V746H315.082V716.155H336.964V746ZM352.393 723.435C355.192 723.435 357.461 724.497 359.198 726.62C360.949 728.73 361.825 731.481 361.825 734.873C361.825 738.265 360.956 741.015 359.219 743.125C357.481 745.235 355.213 746.29 352.414 746.29C350.401 746.29 348.643 745.71 347.14 744.552C345.651 743.394 344.658 741.919 344.162 740.126H344.1V753.136H342.486V723.725H343.996V729.681H344.058C344.568 727.875 345.582 726.386 347.099 725.214C348.629 724.028 350.394 723.435 352.393 723.435ZM352.207 744.842C354.579 744.842 356.502 743.925 357.978 742.091C359.453 740.243 360.191 737.837 360.191 734.873C360.191 731.908 359.453 729.509 357.978 727.675C356.502 725.827 354.579 724.904 352.207 724.904C349.822 724.904 347.871 725.827 346.354 727.675C344.851 729.523 344.1 731.922 344.1 734.873C344.1 737.81 344.851 740.209 346.354 742.07C347.871 743.918 349.822 744.842 352.207 744.842ZM382.052 743.187C380.232 745.255 377.833 746.29 374.855 746.29C371.877 746.29 369.477 745.255 367.657 743.187C365.851 741.119 364.948 738.347 364.948 734.873C364.948 731.384 365.851 728.606 367.657 726.538C369.477 724.469 371.877 723.435 374.855 723.435C377.847 723.435 380.246 724.469 382.052 726.538C383.873 728.606 384.783 731.384 384.783 734.873C384.783 738.347 383.873 741.119 382.052 743.187ZM368.815 742.153C370.332 743.946 372.345 744.842 374.855 744.842C377.364 744.842 379.371 743.946 380.874 742.153C382.39 740.347 383.149 737.92 383.149 734.873C383.149 731.812 382.397 729.385 380.894 727.592C379.391 725.8 377.378 724.904 374.855 724.904C372.332 724.904 370.318 725.8 368.815 727.592C367.313 729.385 366.561 731.812 366.561 734.873C366.561 737.934 367.313 740.361 368.815 742.153ZM404.452 746V725.131H390.615V746H389.023V723.725H406.044V746H404.452ZM427.389 743.187C425.569 745.255 423.17 746.29 420.191 746.29C417.213 746.29 414.814 745.255 412.994 743.187C411.187 741.119 410.284 738.347 410.284 734.873C410.284 731.384 411.187 728.606 412.994 726.538C414.814 724.469 417.213 723.435 420.191 723.435C423.183 723.435 425.583 724.469 427.389 726.538C429.209 728.606 430.119 731.384 430.119 734.873C430.119 738.347 429.209 741.119 427.389 743.187ZM414.152 742.153C415.669 743.946 417.682 744.842 420.191 744.842C422.701 744.842 424.707 743.946 426.21 742.153C427.727 740.347 428.485 737.92 428.485 734.873C428.485 731.812 427.734 729.385 426.231 727.592C424.728 725.8 422.715 724.904 420.191 724.904C417.668 724.904 415.655 725.8 414.152 727.592C412.649 729.385 411.898 731.812 411.898 734.873C411.898 737.934 412.649 740.361 414.152 742.153ZM442.549 725.152H435.952V733.777H442.322C444.018 733.777 445.348 733.377 446.314 732.577C447.293 731.777 447.782 730.681 447.782 729.288C447.782 727.978 447.32 726.965 446.396 726.248C445.486 725.517 444.204 725.152 442.549 725.152ZM442.405 735.183H435.952V744.594H442.756C444.797 744.594 446.341 744.187 447.389 743.373C448.437 742.56 448.961 741.353 448.961 739.754C448.961 738.265 448.382 737.134 447.224 736.362C446.065 735.576 444.459 735.183 442.405 735.183ZM434.359 746V723.725H442.653C444.721 723.725 446.355 724.214 447.555 725.193C448.768 726.172 449.375 727.496 449.375 729.164C449.375 730.502 448.989 731.639 448.216 732.577C447.444 733.515 446.424 734.101 445.155 734.335V734.418C446.7 734.556 447.982 735.1 449.002 736.052C450.023 736.989 450.533 738.23 450.533 739.775C450.533 741.788 449.857 743.332 448.506 744.407C447.169 745.469 445.266 746 442.798 746H434.359ZM463.336 724.883C461.019 724.883 459.123 725.696 457.648 727.324C456.172 728.951 455.373 731.095 455.249 733.756H471.236C471.223 731.122 470.485 728.985 469.023 727.344C467.575 725.703 465.68 724.883 463.336 724.883ZM470.967 739.775H472.601C472.229 741.691 471.223 743.256 469.582 744.469C467.955 745.683 465.935 746.29 463.522 746.29C460.474 746.29 458.055 745.283 456.262 743.27C454.483 741.243 453.594 738.451 453.594 734.893C453.594 731.446 454.483 728.675 456.262 726.579C458.055 724.483 460.419 723.435 463.356 723.435C466.224 723.435 468.527 724.421 470.264 726.393C472.002 728.351 472.87 730.95 472.87 734.19V735.121H455.228V735.204C455.228 738.21 455.979 740.567 457.482 742.277C458.985 743.987 461.005 744.842 463.542 744.842C465.528 744.842 467.176 744.373 468.486 743.435C469.809 742.498 470.637 741.277 470.967 739.775ZM492.788 744.594V725.131H481.495C481.164 730.495 480.881 734.349 480.647 736.693C480.468 738.596 480.213 740.202 479.882 741.512C479.551 742.808 479.061 743.815 478.413 744.532V744.594H492.788ZM476.159 751.895H474.628V744.594H476.386C477.834 743.642 478.751 740.974 479.137 736.589C479.537 732.136 479.84 727.847 480.047 723.725H494.38V744.594H498.062V751.895H496.531V746H476.159V751.895ZM508.651 733.28H502.964V744.594H508.651C510.485 744.594 511.954 744.083 513.057 743.063C514.16 742.029 514.711 740.65 514.711 738.927C514.711 737.217 514.16 735.852 513.057 734.831C511.954 733.797 510.485 733.28 508.651 733.28ZM501.371 746V723.725H502.964V731.894H508.651C510.968 731.894 512.822 732.529 514.215 733.797C515.608 735.066 516.304 736.776 516.304 738.927C516.304 741.078 515.608 742.794 514.215 744.077C512.822 745.359 510.968 746 508.651 746H501.371Z" fill="white"/>
<path d="M380.853 885H379.219V856.665H360.604V885H358.971V855.155H380.853V885ZM395 863.883C392.683 863.883 390.787 864.696 389.312 866.324C387.837 867.951 387.037 870.095 386.913 872.756H402.901C402.887 870.122 402.149 867.985 400.688 866.344C399.24 864.703 397.344 863.883 395 863.883ZM402.632 878.775H404.266C403.893 880.691 402.887 882.256 401.246 883.469C399.619 884.683 397.599 885.29 395.186 885.29C392.139 885.29 389.719 884.283 387.926 882.27C386.148 880.243 385.258 877.451 385.258 873.893C385.258 870.446 386.148 867.675 387.926 865.579C389.719 863.483 392.084 862.435 395.02 862.435C397.888 862.435 400.191 863.421 401.929 865.393C403.666 867.351 404.535 869.95 404.535 873.19V874.121H386.892V874.204C386.892 877.21 387.644 879.567 389.147 881.277C390.65 882.987 392.67 883.842 395.207 883.842C397.192 883.842 398.84 883.373 400.15 882.435C401.473 881.498 402.301 880.277 402.632 878.775ZM424.39 885V874.162H410.346V885H408.754V862.725H410.346V872.756H424.39V862.725H425.983V885H424.39ZM432.932 885H431.339V862.725H432.932V882.477H433.035L447.224 862.725H448.816V885H447.224V865.269H447.141L432.932 885ZM462.798 863.883C460.481 863.883 458.585 864.696 457.11 866.324C455.635 867.951 454.835 870.095 454.711 872.756H470.699C470.685 870.122 469.947 867.985 468.486 866.344C467.038 864.703 465.142 863.883 462.798 863.883ZM470.43 878.775H472.064C471.691 880.691 470.685 882.256 469.044 883.469C467.417 884.683 465.397 885.29 462.984 885.29C459.937 885.29 457.517 884.283 455.724 882.27C453.946 880.243 453.056 877.451 453.056 873.893C453.056 870.446 453.946 867.675 455.724 865.579C457.517 863.483 459.882 862.435 462.818 862.435C465.686 862.435 467.989 863.421 469.726 865.393C471.464 867.351 472.333 869.95 472.333 873.19V874.121H454.69V874.204C454.69 877.21 455.442 879.567 456.945 881.277C458.448 882.987 460.468 883.842 463.005 883.842C464.99 883.842 466.638 883.373 467.948 882.435C469.271 881.498 470.099 880.277 470.43 878.775Z" fill="white"/>
<path d="M289.12 95.05L293.82 94.25V130.25L289.12 131V95.85H267.97V130.25L263.32 131V95.05L267.97 94.25V95.05H289.12ZM317.805 94.25C323.905 94.25 330.305 97.4 330.305 103.65C330.305 109.9 324.055 113.05 318.605 113.05H306.055V130.25L301.405 131V95.05L306.055 94.25H317.805ZM318.605 112.25C324.055 112.25 325.605 107.65 325.605 103.65C325.655 101.35 324.705 99.2 323.105 97.55C321.505 95.95 319.305 95.05 317.005 95.05H306.055V112.25H318.605ZM352.881 94.25C363.031 94.25 371.631 99.75 371.631 112.25C371.631 124.75 363.031 131 352.881 131C342.731 131 334.131 124.75 334.131 112.25C334.131 99.75 342.731 94.25 352.881 94.25ZM354.431 130.25C363.831 130.25 366.931 120.85 366.931 112.25C366.931 99.75 358.331 95.05 351.331 95.05C341.931 95.05 338.781 103.65 338.781 112.25C338.781 124.75 347.381 130.25 354.431 130.25ZM397.518 95.05L402.168 94.25V98.95L397.518 99.75V95.85H382.618V130.25L377.968 131V95.05H397.518ZM423.274 94.25C429.374 94.25 435.774 97.4 435.774 103.65C435.774 109.9 429.524 113.05 424.074 113.05H411.524V130.25L406.874 131V95.05L411.524 94.25H423.274ZM424.074 112.25C429.524 112.25 431.074 107.65 431.074 103.65C431.124 101.35 430.174 99.2 428.574 97.55C426.974 95.95 424.774 95.05 422.474 95.05H411.524V112.25H424.074ZM462.922 131.2L457.222 118.65C450.522 118.95 444.572 121.6 437.772 121.75L433.572 131.2L432.872 130.9L447.672 97.6L447.472 97.1L448.122 96.6L451.322 94.25L466.772 128.35L462.922 131.2ZM438.122 120.95C444.672 120.75 450.422 118.25 456.872 117.9L448.122 98.55L438.122 120.95ZM503.769 95.05L508.469 94.25V130.25L503.769 131V96.8L490.569 119.7L491.019 120.55L489.669 121.3L476.369 98.3V130.25L471.719 131V95.05L476.369 94.25V95.15L490.119 118.9L503.769 95.25V95.05ZM548.154 95.05L552.854 94.25V130.25L548.154 131V96.8L534.954 119.7L535.404 120.55L534.054 121.3L520.754 98.3V130.25L516.104 131V95.05L520.754 94.25V95.15L534.504 118.9L548.154 95.25V95.05ZM587.678 131.2L581.978 118.65C575.278 118.95 569.328 121.6 562.528 121.75L558.328 131.2L557.628 130.9L572.428 97.6L572.228 97.1L572.878 96.6L576.078 94.25L591.528 128.35L587.678 131.2ZM562.878 120.95C569.428 120.75 575.178 118.25 581.628 117.9L572.878 98.55L562.878 120.95ZM597.525 131C596.275 131 595.225 129.95 595.225 128.7C595.225 127.4 596.275 126.35 597.525 126.35C598.825 126.35 599.875 127.4 599.875 128.7C599.875 129.95 598.825 131 597.525 131ZM597.525 107.55C596.275 107.55 595.225 106.5 595.225 105.2C595.225 103.9 596.275 102.85 597.525 102.85C598.825 102.85 599.875 103.9 599.875 105.2C599.875 106.5 598.825 107.55 597.525 107.55Z" fill="#FEFAEF"/>
<path d="M301.265 1025.45H305.165V1030.15L300.465 1030.9V1026.25H272.315V1030.15L267.665 1030.9V1025.45H271.565C275.465 1025.45 278.565 1023.1 278.565 1016.05C278.565 999.65 280.165 990.25 280.165 990.25H296.565L301.265 989.45V1025.45ZM275.465 1025.45H296.565V991.05H280.815C280.465 993.5 279.365 1001.95 279.365 1016.85C279.365 1021.3 277.765 1024.15 275.465 1025.45ZM326.437 989.25C332.537 989.25 338.937 992.4 338.937 998.65C338.937 1004.9 332.687 1008.05 327.237 1008.05H314.687V1025.25L310.037 1026V990.05L314.687 989.25H326.437ZM327.237 1007.25C332.687 1007.25 334.237 1002.65 334.237 998.65C334.287 996.35 333.337 994.2 331.737 992.55C330.137 990.95 327.937 990.05 325.637 990.05H314.687V1007.25H327.237ZM363.913 990.05L368.563 989.25V993.95L363.913 994.75V990.85H349.013V1007.25C353.913 1006.95 358.163 1004.15 363.113 1004.15V1004.9C358.163 1004.9 353.913 1007.7 349.013 1008V1024.45H363.913V1022.9L368.563 1022.1V1025.25L363.913 1026V1025.25H349.013L344.363 1026V990.05L349.013 989.25V990.05H363.913ZM401.894 1018.2L403.244 1020.7C399.544 1024.25 394.544 1026.2 389.394 1026C379.244 1026 370.644 1019.75 370.644 1007.25C370.644 994.75 379.244 989.25 389.394 989.25C393.544 989.2 397.594 990.35 400.994 992.7L399.644 995.85C396.794 992.25 392.444 990.1 387.844 990.05C378.444 990.05 375.294 998.65 375.294 1007.25C375.294 1019.75 383.894 1025.25 390.944 1025.25C395.644 1025.15 399.844 1022.4 401.894 1018.2ZM438.173 1018.2L439.523 1020.7C435.823 1024.25 430.823 1026.2 425.673 1026C415.523 1026 406.923 1019.75 406.923 1007.25C406.923 994.75 415.523 989.25 425.673 989.25C429.823 989.2 433.873 990.35 437.273 992.7L435.923 995.85C433.073 992.25 428.723 990.1 424.123 990.05C414.723 990.05 411.573 998.65 411.573 1007.25C411.573 1019.75 420.173 1025.25 427.223 1025.25C431.923 1025.15 436.123 1022.4 438.173 1018.2ZM457.052 1012.55H443.002V1009.4H457.052V1012.55ZM473.11 1004.95C485.261 1005.3 490.561 1018.3 490.561 1025.25L487.41 1026C487.41 1020.6 483.61 1006.05 472.21 1005.7L467.86 1009.35V1025.25L463.21 1026V990.05L467.86 989.25V1008.3L490.561 989.25L491.11 989.85L473.11 1004.95ZM512.196 989.25C522.346 989.25 530.946 994.75 530.946 1007.25C530.946 1019.75 522.346 1026 512.196 1026C502.046 1026 493.446 1019.75 493.446 1007.25C493.446 994.75 502.046 989.25 512.196 989.25ZM513.746 1025.25C523.146 1025.25 526.246 1015.85 526.246 1007.25C526.246 994.75 517.646 990.05 510.646 990.05C501.246 990.05 498.096 998.65 498.096 1007.25C498.096 1019.75 506.696 1025.25 513.746 1025.25ZM563.13 1025.45H567.03V1030.15L562.33 1030.9V1026.25H534.18V1030.15L529.53 1030.9V1025.45H533.43C537.33 1025.45 540.43 1023.1 540.43 1016.05C540.43 999.65 542.03 990.25 542.03 990.25H558.43L563.13 989.45V1025.45ZM537.33 1025.45H558.43V991.05H542.68C542.33 993.5 541.23 1001.95 541.23 1016.85C541.23 1021.3 539.63 1024.15 537.33 1025.45Z" fill="#FEFAEF"/>
<circle cx="417.738" cy="1095.5" r="29.9271" fill="#A8263E"/>
<circle cx="339.833" cy="1095.5" r="29.9271" fill="#DA7C8E"/>
<circle cx="495.644" cy="1095.5" r="29.9271" fill="#243620"/>
<circle cx="573.549" cy="1095.5" r="29.9271" fill="#202336"/>
<circle cx="261.927" cy="1095.5" r="29.9271" fill="white"/>
<path d="M415.406 1215.36C415.733 1214.15 416.029 1212.98 416.378 1211.82C417.423 1208.37 419.103 1205.85 421.521 1204.58C425.323 1202.57 428.767 1205.97 429.263 1211.93C429.939 1220.17 428.46 1227.84 426.369 1235.23C423.729 1244.54 420.771 1253.67 417.941 1262.87C417.444 1264.47 416.969 1266.1 416.378 1267.63C415.596 1269.65 414.899 1269.68 414.17 1267.57C413.082 1264.43 412.047 1261.22 411.15 1257.96C408.562 1248.54 405.816 1239.18 403.619 1229.56C402.52 1224.67 402.235 1219.3 402.014 1214.11C401.887 1211.05 402.647 1207.9 404.559 1205.97C407.284 1203.23 410.769 1204.3 412.871 1208.65C413.853 1210.67 414.529 1213.01 415.406 1215.35V1215.36Z" fill="#FEFAEF"/>
<path d="M276.589 2122L273.335 2113.3H261.601L258.365 2122H256.81L266.754 2095.91H268.2L278.126 2122H276.589ZM267.423 2097.77L262.071 2112.02H272.883L267.513 2097.77H267.423ZM284.616 2113.86C284.532 2114.88 284.429 2115.76 284.309 2116.5C284.2 2117.25 284.032 2118 283.803 2118.75C283.586 2119.49 283.32 2120.1 283.007 2120.57C282.706 2121.04 282.308 2121.43 281.814 2121.73C281.332 2122.02 280.771 2122.16 280.132 2122.16C279.638 2122.16 279.301 2122.1 279.12 2121.98V2120.7C279.337 2120.81 279.662 2120.86 280.096 2120.86C280.518 2120.86 280.892 2120.74 281.217 2120.5C281.555 2120.26 281.832 2119.94 282.049 2119.54C282.278 2119.14 282.471 2118.63 282.627 2118C282.796 2117.38 282.929 2116.73 283.025 2116.07C283.122 2115.41 283.206 2114.64 283.278 2113.77C283.568 2110.5 283.821 2106.75 284.038 2102.53H296.097V2122H294.704V2103.76H285.321C285.02 2108.72 284.785 2112.09 284.616 2113.86ZM308.318 2103.54C306.293 2103.54 304.636 2104.25 303.346 2105.67C302.057 2107.1 301.358 2108.97 301.249 2111.3H315.225C315.213 2108.99 314.568 2107.13 313.29 2105.69C312.025 2104.26 310.367 2103.54 308.318 2103.54ZM314.99 2116.56H316.418C316.092 2118.23 315.213 2119.6 313.778 2120.66C312.356 2121.72 310.59 2122.25 308.481 2122.25C305.817 2122.25 303.702 2121.37 302.135 2119.61C300.58 2117.84 299.803 2115.4 299.803 2112.29C299.803 2109.28 300.58 2106.86 302.135 2105.02C303.702 2103.19 305.769 2102.28 308.336 2102.28C310.843 2102.28 312.856 2103.14 314.375 2104.86C315.894 2106.57 316.653 2108.84 316.653 2111.68V2112.49H301.231V2112.56C301.231 2115.19 301.888 2117.25 303.202 2118.75C304.516 2120.24 306.281 2120.99 308.499 2120.99C310.235 2120.99 311.675 2120.58 312.82 2119.76C313.977 2118.94 314.7 2117.87 314.99 2116.56ZM323.234 2111.86L334.678 2122H332.707L321.806 2112.33H321.733V2122H320.341V2102.53H321.733V2111.48H321.806L332.292 2102.53H334.172L323.234 2111.86ZM352.034 2108.01H350.624C350.263 2106.68 349.515 2105.61 348.382 2104.79C347.261 2103.97 345.911 2103.56 344.333 2103.56C342.151 2103.56 340.409 2104.35 339.108 2105.93C337.818 2107.49 337.173 2109.61 337.173 2112.27C337.173 2114.94 337.818 2117.06 339.108 2118.64C340.409 2120.2 342.157 2120.99 344.351 2120.99C345.893 2120.99 347.219 2120.61 348.328 2119.85C349.437 2119.09 350.184 2118.08 350.57 2116.81H351.98C351.582 2118.45 350.696 2119.77 349.322 2120.77C347.948 2121.76 346.285 2122.25 344.333 2122.25C341.717 2122.25 339.632 2121.36 338.077 2119.56C336.534 2117.76 335.763 2115.33 335.763 2112.27C335.763 2109.22 336.54 2106.8 338.095 2104.99C339.65 2103.18 341.729 2102.28 344.333 2102.28C346.297 2102.28 347.972 2102.82 349.359 2103.9C350.757 2104.98 351.649 2106.34 352.034 2108.01ZM363.171 2103.54C361.146 2103.54 359.489 2104.25 358.199 2105.67C356.91 2107.1 356.211 2108.97 356.102 2111.3H370.078C370.066 2108.99 369.421 2107.13 368.143 2105.69C366.878 2104.26 365.22 2103.54 363.171 2103.54ZM369.843 2116.56H371.271C370.945 2118.23 370.066 2119.6 368.631 2120.66C367.209 2121.72 365.443 2122.25 363.334 2122.25C360.67 2122.25 358.555 2121.37 356.988 2119.61C355.433 2117.84 354.656 2115.4 354.656 2112.29C354.656 2109.28 355.433 2106.86 356.988 2105.02C358.555 2103.19 360.622 2102.28 363.189 2102.28C365.696 2102.28 367.709 2103.14 369.228 2104.86C370.747 2106.57 371.506 2108.84 371.506 2111.68V2112.49H356.084V2112.56C356.084 2115.19 356.741 2117.25 358.055 2118.75C359.369 2120.24 361.134 2120.99 363.352 2120.99C365.088 2120.99 366.528 2120.58 367.673 2119.76C368.83 2118.94 369.553 2117.87 369.843 2116.56ZM378.231 2094.83H379.407C379.407 2095.92 379.744 2096.8 380.419 2097.45C381.094 2098.09 382.01 2098.41 383.167 2098.41C384.324 2098.41 385.24 2098.09 385.915 2097.45C386.59 2096.8 386.928 2095.92 386.928 2094.83H388.103C388.103 2096.24 387.657 2097.35 386.765 2098.17C385.873 2098.99 384.674 2099.4 383.167 2099.4C381.661 2099.4 380.461 2098.99 379.569 2098.17C378.677 2097.35 378.231 2096.24 378.231 2094.83ZM376.586 2122H375.194V2102.53H376.586V2119.79H376.677L389.079 2102.53H390.471V2122H389.079V2104.75H389.007L376.586 2122ZM417.862 2120.68V2122H402.657V2095.91H417.862V2097.23H404.085V2107.97H417.211V2109.27H404.085V2120.68H417.862ZM428.962 2103.78H423.195V2111.32H428.763C430.246 2111.32 431.409 2110.97 432.253 2110.27C433.109 2109.57 433.536 2108.61 433.536 2107.39C433.536 2106.25 433.133 2105.36 432.325 2104.73C431.53 2104.1 430.409 2103.78 428.962 2103.78ZM428.836 2112.54H423.195V2120.77H429.143C430.927 2120.77 432.277 2120.42 433.193 2119.7C434.109 2118.99 434.567 2117.94 434.567 2116.54C434.567 2115.24 434.061 2114.25 433.048 2113.57C432.036 2112.89 430.632 2112.54 428.836 2112.54ZM421.803 2122V2102.53H429.053C430.861 2102.53 432.289 2102.96 433.338 2103.81C434.398 2104.67 434.929 2105.82 434.929 2107.28C434.929 2108.45 434.591 2109.45 433.916 2110.27C433.241 2111.09 432.349 2111.6 431.24 2111.8V2111.88C432.59 2112 433.711 2112.47 434.603 2113.3C435.495 2114.12 435.941 2115.21 435.941 2116.56C435.941 2118.32 435.35 2119.67 434.169 2120.61C433 2121.54 431.337 2122 429.179 2122H421.803ZM453.568 2120.77V2103.76H443.697C443.408 2108.45 443.161 2111.82 442.956 2113.86C442.799 2115.53 442.576 2116.93 442.287 2118.08C441.998 2119.21 441.57 2120.09 441.003 2120.72V2120.77H453.568ZM439.033 2127.15H437.695V2120.77H439.231C440.497 2119.94 441.299 2117.61 441.636 2113.77C441.986 2109.88 442.251 2106.13 442.432 2102.53H454.961V2120.77H458.179V2127.15H456.841V2122H439.033V2127.15ZM475.047 2119.54C473.456 2121.35 471.359 2122.25 468.755 2122.25C466.152 2122.25 464.055 2121.35 462.464 2119.54C460.885 2117.73 460.095 2115.31 460.095 2112.27C460.095 2109.22 460.885 2106.8 462.464 2104.99C464.055 2103.18 466.152 2102.28 468.755 2102.28C471.371 2102.28 473.468 2103.18 475.047 2104.99C476.638 2106.8 477.433 2109.22 477.433 2112.27C477.433 2115.31 476.638 2117.73 475.047 2119.54ZM463.476 2118.64C464.802 2120.2 466.562 2120.99 468.755 2120.99C470.949 2120.99 472.703 2120.2 474.016 2118.64C475.342 2117.06 476.005 2114.94 476.005 2112.27C476.005 2109.6 475.348 2107.48 474.034 2105.91C472.721 2104.34 470.961 2103.56 468.755 2103.56C466.55 2103.56 464.79 2104.34 463.476 2105.91C462.162 2107.48 461.505 2109.6 461.505 2112.27C461.505 2114.95 462.162 2117.07 463.476 2118.64ZM484.032 2111.86L495.477 2122H493.506L482.604 2112.33H482.532V2122H481.14V2102.53H482.532V2111.48H482.604L493.09 2102.53H494.97L484.032 2111.86ZM499.671 2122H498.279V2102.53H499.671V2119.79H499.761L512.164 2102.53H513.556V2122H512.164V2104.75H512.092L499.671 2122ZM519.631 2122H518.239V2102.53H519.866L528.399 2120.17H528.472L536.969 2102.53H538.542V2122H537.15V2105.2H537.059L528.96 2121.86H527.839L519.721 2105.2H519.631V2122ZM557.2 2119.54C555.609 2121.35 553.512 2122.25 550.908 2122.25C548.305 2122.25 546.208 2121.35 544.617 2119.54C543.038 2117.73 542.248 2115.31 542.248 2112.27C542.248 2109.22 543.038 2106.8 544.617 2104.99C546.208 2103.18 548.305 2102.28 550.908 2102.28C553.524 2102.28 555.621 2103.18 557.2 2104.99C558.791 2106.8 559.586 2109.22 559.586 2112.27C559.586 2115.31 558.791 2117.73 557.2 2119.54ZM545.629 2118.64C546.955 2120.2 548.715 2120.99 550.908 2120.99C553.102 2120.99 554.856 2120.2 556.169 2118.64C557.495 2117.06 558.158 2114.94 558.158 2112.27C558.158 2109.6 557.501 2107.48 556.187 2105.91C554.874 2104.34 553.114 2103.56 550.908 2103.56C548.703 2103.56 546.943 2104.34 545.629 2105.91C544.315 2107.48 543.658 2109.6 543.658 2112.27C543.658 2114.95 544.315 2117.07 545.629 2118.64ZM570.452 2103.78H564.685V2111.32H570.253C571.736 2111.32 572.899 2110.97 573.743 2110.27C574.598 2109.57 575.026 2108.61 575.026 2107.39C575.026 2106.25 574.622 2105.36 573.815 2104.73C573.019 2104.1 571.898 2103.78 570.452 2103.78ZM570.326 2112.54H564.685V2120.77H570.633C572.417 2120.77 573.767 2120.42 574.683 2119.7C575.599 2118.99 576.057 2117.94 576.057 2116.54C576.057 2115.24 575.55 2114.25 574.538 2113.57C573.526 2112.89 572.121 2112.54 570.326 2112.54ZM563.293 2122V2102.53H570.542C572.35 2102.53 573.779 2102.96 574.827 2103.81C575.888 2104.67 576.418 2105.82 576.418 2107.28C576.418 2108.45 576.081 2109.45 575.406 2110.27C574.731 2111.09 573.839 2111.6 572.73 2111.8V2111.88C574.08 2112 575.201 2112.47 576.093 2113.3C576.985 2114.12 577.431 2115.21 577.431 2116.56C577.431 2118.32 576.84 2119.67 575.659 2120.61C574.49 2121.54 572.827 2122 570.669 2122H563.293ZM209.351 2166H207.905V2141.23H198.721V2139.91H218.536V2141.23H209.351V2166ZM224.99 2147.54C222.965 2147.54 221.308 2148.25 220.018 2149.67C218.729 2151.1 218.03 2152.97 217.921 2155.3H231.896C231.884 2152.99 231.24 2151.13 229.962 2149.69C228.696 2148.26 227.039 2147.54 224.99 2147.54ZM231.661 2160.56H233.09C232.764 2162.23 231.884 2163.6 230.45 2164.66C229.028 2165.72 227.262 2166.25 225.153 2166.25C222.489 2166.25 220.374 2165.37 218.807 2163.61C217.252 2161.84 216.475 2159.4 216.475 2156.29C216.475 2153.28 217.252 2150.86 218.807 2149.02C220.374 2147.19 222.441 2146.28 225.008 2146.28C227.515 2146.28 229.528 2147.14 231.047 2148.86C232.565 2150.57 233.325 2152.84 233.325 2155.68V2156.49H217.903V2156.56C217.903 2159.19 218.56 2161.25 219.874 2162.75C221.187 2164.24 222.953 2164.99 225.171 2164.99C226.907 2164.99 228.347 2164.58 229.492 2163.76C230.649 2162.94 231.372 2161.87 231.661 2160.56ZM238.405 2166H237.013V2146.53H238.64L247.174 2164.17H247.246L255.743 2146.53H257.316V2166H255.924V2149.2H255.834L247.734 2165.86H246.613L238.495 2149.2H238.405V2166ZM268.037 2165.01C269.978 2165.01 271.629 2164.4 272.991 2163.2C274.353 2161.98 275.034 2160.51 275.034 2158.79V2155.88L268.543 2156.36C266.675 2156.5 265.253 2156.94 264.277 2157.68C263.3 2158.43 262.812 2159.46 262.812 2160.76C262.812 2162 263.3 2163.02 264.277 2163.81C265.265 2164.61 266.519 2165.01 268.037 2165.01ZM267.856 2166.25C265.952 2166.25 264.397 2165.75 263.192 2164.73C261.999 2163.71 261.402 2162.38 261.402 2160.76C261.402 2159.09 261.987 2157.79 263.156 2156.85C264.337 2155.91 266.073 2155.36 268.363 2155.19L275.034 2154.7V2152.96C275.034 2151.27 274.54 2149.94 273.551 2148.99C272.575 2148.04 271.213 2147.56 269.466 2147.56C267.814 2147.56 266.464 2147.96 265.416 2148.77C264.367 2149.58 263.728 2150.72 263.499 2152.19H262.143C262.312 2150.39 263.065 2148.96 264.403 2147.88C265.741 2146.81 267.435 2146.28 269.484 2146.28C271.617 2146.28 273.304 2146.87 274.546 2148.05C275.799 2149.23 276.426 2150.84 276.426 2152.87V2166H275.07V2161.81H275.034C274.552 2163.13 273.648 2164.2 272.322 2165.02C270.996 2165.84 269.508 2166.25 267.856 2166.25ZM283.839 2165.82C283.598 2166.06 283.302 2166.18 282.953 2166.18C282.603 2166.18 282.302 2166.06 282.049 2165.82C281.808 2165.57 281.687 2165.26 281.687 2164.92C281.687 2164.57 281.808 2164.27 282.049 2164.03C282.302 2163.78 282.603 2163.65 282.953 2163.65C283.302 2163.65 283.598 2163.78 283.839 2164.03C284.092 2164.27 284.218 2164.57 284.218 2164.92C284.218 2165.26 284.092 2165.57 283.839 2165.82ZM283.839 2151.9C283.598 2152.14 283.302 2152.26 282.953 2152.26C282.603 2152.26 282.302 2152.14 282.049 2151.9C281.808 2151.64 281.687 2151.34 281.687 2150.99C281.687 2150.64 281.808 2150.35 282.049 2150.11C282.302 2149.86 282.603 2149.73 282.953 2149.73C283.302 2149.73 283.598 2149.86 283.839 2150.11C284.092 2150.35 284.218 2150.64 284.218 2150.99C284.218 2151.34 284.092 2151.64 283.839 2151.9ZM297.272 2139.91H305.751C308.294 2139.91 310.325 2140.62 311.844 2142.04C313.374 2143.45 314.14 2145.34 314.14 2147.7C314.14 2150.05 313.374 2151.94 311.844 2153.36C310.313 2154.77 308.282 2155.48 305.751 2155.48H298.7V2166H297.272V2139.91ZM298.7 2141.21V2154.18H305.516C307.722 2154.18 309.463 2153.6 310.741 2152.44C312.031 2151.28 312.675 2149.7 312.675 2147.7C312.675 2145.69 312.031 2144.11 310.741 2142.95C309.463 2141.79 307.722 2141.21 305.516 2141.21H298.7ZM331.406 2163.54C329.815 2165.35 327.717 2166.25 325.114 2166.25C322.511 2166.25 320.413 2165.35 318.822 2163.54C317.243 2161.73 316.454 2159.31 316.454 2156.27C316.454 2153.22 317.243 2150.8 318.822 2148.99C320.413 2147.18 322.511 2146.28 325.114 2146.28C327.73 2146.28 329.827 2147.18 331.406 2148.99C332.997 2150.8 333.792 2153.22 333.792 2156.27C333.792 2159.31 332.997 2161.73 331.406 2163.54ZM319.835 2162.64C321.161 2164.2 322.92 2164.99 325.114 2164.99C327.308 2164.99 329.061 2164.2 330.375 2162.64C331.701 2161.06 332.364 2158.94 332.364 2156.27C332.364 2153.6 331.707 2151.48 330.393 2149.91C329.079 2148.34 327.32 2147.56 325.114 2147.56C322.908 2147.56 321.149 2148.34 319.835 2149.91C318.521 2151.48 317.864 2153.6 317.864 2156.27C317.864 2158.95 318.521 2161.07 319.835 2162.64ZM349.63 2155.82L359.899 2166H357.946L348.238 2156.33H348.165V2166H346.773V2156.33H346.701L336.992 2166H335.094L345.327 2155.88L335.528 2146.53H337.408L346.701 2155.48H346.773V2146.53H348.165V2155.48H348.238L357.53 2146.53H359.375L349.63 2155.82ZM376.677 2164.77V2147.76H366.805C366.516 2152.45 366.269 2155.82 366.064 2157.86C365.907 2159.53 365.684 2160.93 365.395 2162.08C365.106 2163.21 364.678 2164.09 364.111 2164.72V2164.77H376.677ZM362.141 2171.15H360.803V2164.77H362.34C363.605 2163.94 364.407 2161.61 364.744 2157.77C365.094 2153.88 365.359 2150.13 365.54 2146.53H378.069V2164.77H381.287V2171.15H379.949V2166H362.141V2171.15ZM391.719 2147.54C389.694 2147.54 388.037 2148.25 386.747 2149.67C385.457 2151.1 384.758 2152.97 384.65 2155.3H398.625C398.613 2152.99 397.968 2151.13 396.691 2149.69C395.425 2148.26 393.768 2147.54 391.719 2147.54ZM398.39 2160.56H399.818C399.493 2162.23 398.613 2163.6 397.179 2164.66C395.756 2165.72 393.991 2166.25 391.881 2166.25C389.218 2166.25 387.102 2165.37 385.536 2163.61C383.981 2161.84 383.203 2159.4 383.203 2156.29C383.203 2153.28 383.981 2150.86 385.536 2149.02C387.102 2147.19 389.17 2146.28 391.737 2146.28C394.244 2146.28 396.257 2147.14 397.775 2148.86C399.294 2150.57 400.053 2152.84 400.053 2155.68V2156.49H384.632V2156.56C384.632 2159.19 385.288 2161.25 386.602 2162.75C387.916 2164.24 389.682 2164.99 391.9 2164.99C393.635 2164.99 395.075 2164.58 396.22 2163.76C397.378 2162.94 398.101 2161.87 398.39 2160.56ZM418.91 2152.01H417.5C417.138 2150.68 416.391 2149.61 415.258 2148.79C414.137 2147.97 412.787 2147.56 411.208 2147.56C409.027 2147.56 407.285 2148.35 405.983 2149.93C404.694 2151.49 404.049 2153.61 404.049 2156.27C404.049 2158.94 404.694 2161.06 405.983 2162.64C407.285 2164.2 409.033 2164.99 411.226 2164.99C412.769 2164.99 414.095 2164.61 415.204 2163.85C416.313 2163.09 417.06 2162.08 417.446 2160.81H418.856C418.458 2162.45 417.572 2163.77 416.198 2164.77C414.824 2165.76 413.161 2166.25 411.208 2166.25C408.593 2166.25 406.508 2165.36 404.953 2163.56C403.41 2161.76 402.639 2159.33 402.639 2156.27C402.639 2153.22 403.416 2150.8 404.971 2148.99C406.526 2147.18 408.605 2146.28 411.208 2146.28C413.173 2146.28 414.848 2146.82 416.234 2147.9C417.633 2148.98 418.524 2150.34 418.91 2152.01ZM435.833 2146.53V2147.76H428.763V2166H427.371V2147.76H420.284V2146.53H435.833ZM446.047 2147.78H440.28V2155.32H445.849C447.331 2155.32 448.494 2154.97 449.338 2154.27C450.194 2153.57 450.622 2152.61 450.622 2151.39C450.622 2150.25 450.218 2149.36 449.41 2148.73C448.615 2148.1 447.494 2147.78 446.047 2147.78ZM445.921 2156.54H440.28V2164.77H446.228C448.012 2164.77 449.362 2164.42 450.278 2163.7C451.194 2162.99 451.652 2161.94 451.652 2160.54C451.652 2159.24 451.146 2158.25 450.133 2157.57C449.121 2156.89 447.717 2156.54 445.921 2156.54ZM438.888 2166V2146.53H446.138C447.946 2146.53 449.374 2146.96 450.423 2147.81C451.483 2148.67 452.014 2149.82 452.014 2151.28C452.014 2152.45 451.676 2153.45 451.001 2154.27C450.326 2155.09 449.434 2155.6 448.325 2155.8V2155.88C449.675 2156 450.796 2156.47 451.688 2157.3C452.58 2158.12 453.026 2159.21 453.026 2160.56C453.026 2162.32 452.436 2163.67 451.254 2164.61C450.085 2165.54 448.422 2166 446.264 2166H438.888ZM470.654 2163.54C469.063 2165.35 466.965 2166.25 464.362 2166.25C461.758 2166.25 459.661 2165.35 458.07 2163.54C456.491 2161.73 455.702 2159.31 455.702 2156.27C455.702 2153.22 456.491 2150.8 458.07 2148.99C459.661 2147.18 461.758 2146.28 464.362 2146.28C466.977 2146.28 469.075 2147.18 470.654 2148.99C472.245 2150.8 473.04 2153.22 473.04 2156.27C473.04 2159.31 472.245 2161.73 470.654 2163.54ZM459.083 2162.64C460.409 2164.2 462.168 2164.99 464.362 2164.99C466.556 2164.99 468.309 2164.2 469.623 2162.64C470.949 2161.06 471.612 2158.94 471.612 2156.27C471.612 2153.6 470.955 2151.48 469.641 2149.91C468.327 2148.34 466.568 2147.56 464.362 2147.56C462.156 2147.56 460.396 2148.34 459.083 2149.91C457.769 2151.48 457.112 2153.6 457.112 2156.27C457.112 2158.95 457.769 2161.07 459.083 2162.64ZM482.694 2166L492.023 2152.95V2152.91L482.731 2139.91H484.448L492.927 2151.81H492.964L501.479 2139.91H503.142L493.777 2152.95V2152.98L503.088 2166H501.371L492.909 2154.14H492.873L484.358 2166H482.694ZM515.093 2146.28C517.54 2146.28 519.522 2147.2 521.041 2149.06C522.572 2150.9 523.337 2153.31 523.337 2156.27C523.337 2159.24 522.578 2161.64 521.059 2163.49C519.54 2165.33 517.558 2166.25 515.111 2166.25C513.351 2166.25 511.814 2165.75 510.501 2164.73C509.199 2163.72 508.331 2162.43 507.897 2160.87H507.843V2172.24H506.433V2146.53H507.753V2151.74H507.807C508.253 2150.16 509.139 2148.85 510.464 2147.83C511.802 2146.79 513.345 2146.28 515.093 2146.28ZM514.93 2164.99C517.003 2164.99 518.685 2164.19 519.974 2162.58C521.264 2160.97 521.909 2158.86 521.909 2156.27C521.909 2153.68 521.264 2151.58 519.974 2149.98C518.685 2148.37 517.003 2147.56 514.93 2147.56C512.845 2147.56 511.139 2148.37 509.814 2149.98C508.5 2151.6 507.843 2153.69 507.843 2156.27C507.843 2158.84 508.5 2160.94 509.814 2162.56C511.139 2164.18 512.845 2164.99 514.93 2164.99ZM528.435 2166H527.043V2146.53H528.435V2163.79H528.526L540.928 2146.53H542.32V2166H540.928V2148.75H540.856L528.435 2166ZM562.172 2152.01H560.761C560.4 2150.68 559.653 2149.61 558.52 2148.79C557.399 2147.97 556.049 2147.56 554.47 2147.56C552.288 2147.56 550.547 2148.35 549.245 2149.93C547.955 2151.49 547.31 2153.61 547.31 2156.27C547.31 2158.94 547.955 2161.06 549.245 2162.64C550.547 2164.2 552.294 2164.99 554.488 2164.99C556.031 2164.99 557.357 2164.61 558.465 2163.85C559.574 2163.09 560.322 2162.08 560.707 2160.81H562.117C561.72 2162.45 560.834 2163.77 559.46 2164.77C558.086 2165.76 556.422 2166.25 554.47 2166.25C551.854 2166.25 549.769 2165.36 548.214 2163.56C546.672 2161.76 545.9 2159.33 545.9 2156.27C545.9 2153.22 546.678 2150.8 548.232 2148.99C549.787 2147.18 551.866 2146.28 554.47 2146.28C556.434 2146.28 558.11 2146.82 559.496 2147.9C560.894 2148.98 561.786 2150.34 562.172 2152.01ZM579.094 2146.53V2147.76H572.025V2166H570.633V2147.76H563.546V2146.53H579.094ZM595.221 2163.54C593.63 2165.35 591.533 2166.25 588.929 2166.25C586.326 2166.25 584.229 2165.35 582.638 2163.54C581.059 2161.73 580.269 2159.31 580.269 2156.27C580.269 2153.22 581.059 2150.8 582.638 2148.99C584.229 2147.18 586.326 2146.28 588.929 2146.28C591.545 2146.28 593.642 2147.18 595.221 2148.99C596.812 2150.8 597.607 2153.22 597.607 2156.27C597.607 2159.31 596.812 2161.73 595.221 2163.54ZM583.65 2162.64C584.976 2164.2 586.736 2164.99 588.929 2164.99C591.123 2164.99 592.877 2164.2 594.19 2162.64C595.516 2161.06 596.179 2158.94 596.179 2156.27C596.179 2153.6 595.522 2151.48 594.208 2149.91C592.895 2148.34 591.135 2147.56 588.929 2147.56C586.724 2147.56 584.964 2148.34 583.65 2149.91C582.336 2151.48 581.679 2153.6 581.679 2156.27C581.679 2158.95 582.336 2161.07 583.65 2162.64ZM608.473 2147.78H602.706V2155.32H608.274C609.757 2155.32 610.92 2154.97 611.764 2154.27C612.619 2153.57 613.047 2152.61 613.047 2151.39C613.047 2150.25 612.643 2149.36 611.836 2148.73C611.04 2148.1 609.919 2147.78 608.473 2147.78ZM608.347 2156.54H602.706V2164.77H608.654C610.438 2164.77 611.788 2164.42 612.704 2163.7C613.62 2162.99 614.078 2161.94 614.078 2160.54C614.078 2159.24 613.572 2158.25 612.559 2157.57C611.547 2156.89 610.142 2156.54 608.347 2156.54ZM601.314 2166V2146.53H608.564C610.371 2146.53 611.8 2146.96 612.848 2147.81C613.909 2148.67 614.439 2149.82 614.439 2151.28C614.439 2152.45 614.102 2153.45 613.427 2154.27C612.752 2155.09 611.86 2155.6 610.751 2155.8V2155.88C612.101 2156 613.222 2156.47 614.114 2157.3C615.006 2158.12 615.452 2159.21 615.452 2160.56C615.452 2162.32 614.861 2163.67 613.68 2164.61C612.511 2165.54 610.848 2166 608.69 2166H601.314ZM633.079 2163.54C631.488 2165.35 629.391 2166.25 626.788 2166.25C624.184 2166.25 622.087 2165.35 620.496 2163.54C618.917 2161.73 618.128 2159.31 618.128 2156.27C618.128 2153.22 618.917 2150.8 620.496 2148.99C622.087 2147.18 624.184 2146.28 626.788 2146.28C629.403 2146.28 631.5 2147.18 633.079 2148.99C634.67 2150.8 635.466 2153.22 635.466 2156.27C635.466 2159.31 634.67 2161.73 633.079 2163.54ZM621.508 2162.64C622.834 2164.2 624.594 2164.99 626.788 2164.99C628.981 2164.99 630.735 2164.2 632.049 2162.64C633.375 2161.06 634.037 2158.94 634.037 2156.27C634.037 2153.6 633.381 2151.48 632.067 2149.91C630.753 2148.34 628.993 2147.56 626.788 2147.56C624.582 2147.56 622.822 2148.34 621.508 2149.91C620.195 2151.48 619.538 2153.6 619.538 2156.27C619.538 2158.95 620.195 2161.07 621.508 2162.64Z" fill="#A8263E"/>
<path d="M270.86 1455.05L275.56 1454.25V1490.25L270.86 1491V1455.85H249.71V1490.25L245.06 1491V1455.05L249.71 1454.25V1455.05H270.86ZM299.544 1454.25C305.644 1454.25 312.044 1457.4 312.044 1463.65C312.044 1469.9 305.794 1473.05 300.344 1473.05H287.794V1490.25L283.144 1491V1455.05L287.794 1454.25H299.544ZM300.344 1472.25C305.794 1472.25 307.344 1467.65 307.344 1463.65C307.394 1461.35 306.444 1459.2 304.844 1457.55C303.244 1455.95 301.044 1455.05 298.744 1455.05H287.794V1472.25H300.344ZM334.621 1454.25C344.771 1454.25 353.371 1459.75 353.371 1472.25C353.371 1484.75 344.771 1491 334.621 1491C324.471 1491 315.871 1484.75 315.871 1472.25C315.871 1459.75 324.471 1454.25 334.621 1454.25ZM336.171 1490.25C345.571 1490.25 348.671 1480.85 348.671 1472.25C348.671 1459.75 340.071 1455.05 333.071 1455.05C323.671 1455.05 320.521 1463.65 320.521 1472.25C320.521 1484.75 329.121 1490.25 336.171 1490.25ZM385.557 1455.05L390.257 1454.25V1490.25L385.557 1491V1455.85H364.407V1490.25L359.757 1491V1455.05L364.407 1454.25V1455.05H385.557ZM415.431 1454.25C425.581 1454.25 434.181 1459.75 434.181 1472.25C434.181 1484.75 425.581 1491 415.431 1491C405.281 1491 396.681 1484.75 396.681 1472.25C396.681 1459.75 405.281 1454.25 415.431 1454.25ZM416.981 1490.25C426.381 1490.25 429.481 1480.85 429.481 1472.25C429.481 1459.75 420.881 1455.05 413.881 1455.05C404.481 1455.05 401.331 1463.65 401.331 1472.25C401.331 1484.75 409.931 1490.25 416.981 1490.25ZM465.867 1469.7C470.567 1470.9 474.167 1474.1 474.167 1480.05C474.167 1488.05 468.367 1491 455.417 1491C451.417 1491 445.217 1490.25 445.217 1490.25L440.567 1491V1455.05L445.217 1454.25H458.517C464.667 1454.25 471.067 1456.25 471.067 1462.3C471.067 1467.15 468.417 1469.15 465.867 1469.7ZM457.767 1455.05H445.217V1472.2C450.717 1471.75 454.517 1469.35 460.217 1469.15L460.117 1469.1C464.117 1469.1 466.367 1466.1 466.367 1462.1C466.367 1457.05 461.767 1455.05 457.767 1455.05ZM456.167 1490.25C466.117 1490.25 469.467 1485.05 469.467 1480.05C469.467 1473.85 465.517 1470.25 460.867 1469.9C454.817 1469.9 450.967 1472.55 445.217 1472.95V1489.45C445.217 1489.45 452.217 1490.25 456.167 1490.25ZM499.911 1455.05L504.561 1454.25V1458.95L499.911 1459.75V1455.85H485.011V1472.25C489.911 1471.95 494.161 1469.15 499.111 1469.15V1469.9C494.161 1469.9 489.911 1472.7 485.011 1473V1489.45H499.911V1487.9L504.561 1487.1V1490.25L499.911 1491V1490.25H485.011L480.361 1491V1455.05L485.011 1454.25V1455.05H499.911ZM540.046 1490.45H543.946V1495.15L539.246 1495.9V1491.25H511.096V1495.15L506.446 1495.9V1490.45H510.346C514.246 1490.45 517.346 1488.1 517.346 1481.05C517.346 1464.65 518.946 1455.25 518.946 1455.25H535.346L540.046 1454.45V1490.45ZM514.246 1490.45H535.346V1456.05H519.596C519.246 1458.5 518.146 1466.95 518.146 1481.85C518.146 1486.3 516.546 1489.15 514.246 1490.45ZM569.118 1469.15C576.118 1469.15 582.418 1472.1 582.418 1480.05C582.418 1488.05 576.618 1491 563.668 1491C559.668 1491 553.468 1490.25 553.468 1490.25L548.818 1491V1455.05L553.468 1454.25V1472.2C559.218 1471.75 563.068 1469.15 569.118 1469.15ZM564.418 1490.25C574.368 1490.25 577.718 1485.05 577.718 1480.1C577.718 1473.85 573.768 1470.25 569.118 1469.9C563.068 1469.9 559.218 1472.55 553.468 1472.95V1489.45C553.468 1489.45 560.468 1490.25 564.418 1490.25ZM588.785 1491C587.535 1491 586.485 1489.95 586.485 1488.7C586.485 1487.4 587.535 1486.35 588.785 1486.35C590.085 1486.35 591.135 1487.4 591.135 1488.7C591.135 1489.95 590.085 1491 588.785 1491ZM588.785 1467.55C587.535 1467.55 586.485 1466.5 586.485 1465.2C586.485 1463.9 587.535 1462.85 588.785 1462.85C590.085 1462.85 591.135 1463.9 591.135 1465.2C591.135 1466.5 590.085 1467.55 588.785 1467.55Z" fill="#A8263E"/>
</svg>
